<?xml version="1.0" standalone="no"?>
<!DOCTYPE svg PUBLIC "-//W3C//DTD SVG 20010904//EN"
 "http://www.w3.org/TR/2001/REC-SVG-20010904/DTD/svg10.dtd">
<svg version="1.0" xmlns="http://www.w3.org/2000/svg"
 width="640.000000pt" height="1280.000000pt" viewBox="0 0 640.000000 1280.000000"
 preserveAspectRatio="xMidYMid meet">
<metadata>
Created by potrace 1.15, written by Peter Selinger 2001-2017
</metadata>
<g transform="translate(0.000000,1280.000000) scale(0.100000,-0.100000)"
fill="#000000" stroke="none">
<path d="M3615 12795 c-5 -2 -23 -6 -39 -10 -26 -5 -28 -9 -23 -43 l6 -37 -11
33 c-6 17 -17 32 -25 32 -21 0 -73 -29 -73 -41 0 -6 -5 -7 -10 -4 -13 8 -82
-34 -75 -46 4 -5 0 -7 -7 -4 -7 3 -26 -6 -43 -19 l-30 -24 30 -34 30 -33 -32
29 c-37 33 -39 32 -105 -39 l-37 -40 52 -48 c29 -27 39 -40 22 -29 -16 11 -39
29 -49 41 -26 28 -42 26 -63 -6 -10 -16 -28 -39 -41 -53 -12 -14 -20 -31 -17
-37 2 -7 0 -12 -6 -10 -5 1 -17 -11 -27 -28 -9 -16 -23 -36 -30 -44 -8 -8 -18
-24 -23 -35 -6 -12 -21 -39 -34 -61 -34 -58 -75 -135 -75 -144 0 -4 27 -20 60
-36 33 -16 58 -30 56 -32 -2 -3 -27 7 -55 21 -64 33 -79 33 -87 -1 -4 -16 -14
-38 -21 -50 -8 -12 -16 -28 -17 -35 -2 -7 -8 -26 -16 -43 -25 -58 -30 -71 -50
-122 -11 -29 -17 -53 -14 -53 4 0 2 -6 -3 -12 -18 -22 -46 -120 -37 -127 5 -4
35 -15 67 -25 32 -10 57 -19 55 -21 -2 -3 -33 4 -68 15 -35 11 -66 18 -68 15
-4 -3 -14 -41 -32 -115 -4 -19 -15 -61 -24 -93 -9 -31 -15 -61 -14 -65 0 -4
-1 -14 -4 -22 -16 -41 -39 -183 -32 -190 5 -4 34 -13 64 -18 l55 -10 -65 1
-65 2 -1 -30 c0 -17 -3 -36 -7 -42 -9 -14 -24 -207 -31 -393 l-1 -35 70 -6 70
-5 -73 -2 -73 -2 6 -67 c3 -38 7 -104 9 -148 2 -44 7 -109 11 -144 10 -81 12
-102 14 -123 1 -15 9 -17 64 -13 68 5 60 0 -17 -10 -46 -6 -48 -8 -41 -33 3
-15 6 -40 5 -55 0 -16 2 -33 6 -38 3 -6 8 -36 10 -67 3 -31 12 -109 22 -172
17 -114 17 -115 47 -121 l30 -7 -27 -1 c-32 -1 -32 -6 -17 -82 6 -30 12 -67
15 -84 2 -16 6 -41 8 -55 11 -62 16 -98 22 -135 18 -133 10 -124 109 -113 43
6 41 4 -17 -9 -58 -14 -68 -19 -68 -38 0 -12 3 -25 7 -28 3 -4 7 -19 9 -34 1
-16 5 -49 8 -74 5 -38 2 -49 -14 -64 -29 -26 -25 -39 25 -83 25 -22 45 -43 45
-48 0 -4 -22 14 -50 41 l-50 49 -92 -95 c-145 -149 -224 -233 -231 -246 -4 -6
15 -33 45 -64 l53 -52 -59 48 -59 49 -68 -74 c-37 -41 -65 -79 -62 -84 3 -6 2
-8 -2 -3 -8 7 -45 -20 -45 -32 0 -4 -31 -40 -70 -80 -38 -41 -70 -78 -70 -83
0 -5 21 -30 48 -55 l47 -45 -51 41 c-51 40 -74 50 -74 32 0 -5 -16 -24 -35
-42 -19 -19 -35 -36 -35 -40 0 -4 -20 -29 -45 -55 -25 -27 -45 -55 -45 -61 0
-7 -4 -13 -9 -13 -11 0 -121 -137 -121 -150 0 -5 22 -26 50 -47 27 -21 49 -42
50 -46 0 -5 -23 10 -51 32 -29 23 -57 41 -63 41 -9 0 -32 -28 -71 -88 -5 -9
-18 -25 -28 -36 -15 -18 -153 -219 -180 -263 -6 -9 11 -25 54 -53 34 -22 58
-40 53 -40 -5 0 -34 16 -64 35 l-55 34 -17 -22 c-10 -12 -16 -26 -15 -31 2 -5
-8 -20 -21 -33 -12 -13 -20 -28 -17 -33 3 -6 2 -10 -2 -10 -5 0 -24 -27 -41
-60 -18 -33 -30 -60 -27 -60 3 0 -4 -9 -15 -20 -11 -11 -20 -29 -20 -40 0 -11
-4 -20 -9 -20 -4 0 -20 -26 -34 -57 l-27 -58 68 -33 c37 -18 56 -30 42 -26
-14 4 -42 15 -62 25 -21 11 -41 19 -46 19 -12 0 -34 -49 -27 -61 4 -5 2 -9 -3
-9 -12 0 -33 -56 -25 -64 4 -3 1 -6 -5 -6 -6 0 -13 -14 -17 -30 -4 -17 -13
-44 -21 -60 -9 -16 -13 -34 -9 -40 3 -5 2 -10 -3 -10 -4 0 -16 -28 -26 -62
-10 -35 -22 -76 -27 -92 -15 -48 -11 -53 51 -66 33 -7 63 -16 65 -21 3 -4 -19
-1 -47 7 -83 22 -85 21 -98 -43 -16 -76 -21 -103 -24 -134 -2 -14 -5 -30 -9
-35 -3 -6 -8 -41 -11 -80 -3 -38 -8 -99 -11 -136 l-6 -67 43 -4 43 -4 -42 -1
-43 -2 4 -182 c2 -101 6 -199 8 -218 2 -19 5 -52 6 -74 l2 -39 73 6 72 5 -68
-11 c-37 -7 -68 -16 -68 -22 -1 -20 23 -180 28 -195 3 -8 6 -22 7 -30 3 -25
17 -94 24 -110 3 -8 6 -22 7 -30 1 -9 8 -39 15 -68 15 -58 20 -60 96 -37 27 8
54 14 59 14 6 -1 -21 -11 -60 -23 -64 -20 -70 -25 -67 -47 2 -13 8 -28 13 -33
5 -6 9 -20 9 -32 0 -13 6 -29 13 -36 8 -7 12 -19 9 -26 -2 -7 3 -24 12 -37 9
-13 16 -33 16 -44 0 -11 7 -26 15 -34 8 -8 12 -17 9 -20 -7 -7 18 -57 28 -57
5 0 7 -4 4 -9 -8 -12 43 -121 55 -121 5 0 26 8 47 19 20 10 48 21 62 25 14 4
-6 -10 -43 -29 l-68 -36 32 -57 c18 -31 36 -58 41 -60 4 -2 8 -11 8 -21 0 -9
9 -27 19 -38 11 -12 18 -23 15 -25 -2 -3 6 -16 18 -30 13 -14 24 -32 26 -39 2
-8 11 -22 19 -32 9 -9 21 -25 27 -36 40 -67 68 -101 79 -95 7 4 31 23 55 42
23 19 45 33 47 30 2 -2 -18 -21 -45 -41 -28 -21 -50 -42 -50 -48 0 -20 131
-169 142 -162 6 3 8 2 5 -4 -7 -11 84 -103 102 -103 7 0 10 -4 7 -9 -6 -9 85
-91 101 -91 4 0 26 22 48 50 21 27 41 47 43 45 3 -2 -15 -27 -38 -55 -41 -49
-42 -51 -25 -70 10 -11 22 -20 26 -20 4 0 20 -12 34 -26 14 -14 32 -23 40 -20
8 3 14 0 12 -6 -1 -6 11 -18 27 -27 16 -9 40 -26 54 -39 14 -12 27 -20 30 -18
2 3 13 -4 25 -15 11 -10 29 -19 38 -19 10 0 19 -4 21 -9 3 -10 102 -61 117
-61 5 0 22 27 37 60 15 33 29 59 31 57 2 -2 -8 -29 -22 -61 -14 -31 -25 -60
-25 -65 0 -11 50 -32 61 -26 5 4 9 2 9 -3 0 -6 14 -15 30 -21 17 -5 30 -7 30
-4 0 3 6 1 13 -5 13 -11 101 -44 127 -47 8 -1 28 -7 44 -14 16 -6 31 -9 34 -6
3 2 10 1 16 -4 6 -5 25 -11 41 -14 17 -3 44 -9 62 -12 l31 -7 12 58 c14 72 18
85 19 59 0 -11 -4 -40 -10 -64 -5 -24 -6 -48 -2 -52 4 -4 27 -10 51 -13 23 -3
59 -8 80 -11 20 -3 53 -7 72 -10 19 -2 97 -7 172 -10 l137 -6 4 78 3 78 2 -78
2 -78 68 5 c37 4 99 9 137 11 39 3 81 7 95 9 14 2 50 7 80 11 30 4 57 8 60 8
8 3 13 -10 25 -70 l12 -58 44 2 c41 2 38 -1 -18 -13 -16 -3 -23 -12 -23 -29 0
-13 4 -26 9 -29 5 -3 7 -15 4 -26 -3 -11 -2 -28 2 -37 4 -10 9 -29 10 -43 3
-26 11 -76 19 -120 9 -51 23 -144 25 -173 1 -15 8 -17 54 -13 l52 5 -44 -9
c-24 -5 -46 -12 -49 -14 -4 -4 20 -194 34 -276 3 -14 7 -52 10 -85 9 -111 6
-107 77 -101 l62 5 -62 -10 c-56 -10 -63 -13 -63 -33 0 -13 3 -25 6 -29 3 -3
7 -27 9 -54 2 -26 7 -86 10 -133 4 -47 7 -113 6 -147 l0 -62 72 -4 72 -3 -73
-2 -73 -2 2 -32 c1 -30 -4 -67 -17 -138 -3 -14 -6 -33 -8 -42 -1 -10 -5 -21
-9 -24 -4 -4 -7 -15 -7 -24 0 -9 -9 -35 -20 -58 -11 -22 -20 -46 -20 -51 0 -6
27 -24 60 -41 33 -17 60 -33 60 -35 0 -3 -27 8 -60 25 -71 36 -77 36 -86 8 -3
-12 -10 -26 -15 -32 -5 -6 -27 -34 -49 -63 -22 -29 -69 -76 -104 -104 l-65
-52 40 -58 c22 -33 37 -59 34 -59 -2 0 -21 25 -41 55 -20 30 -39 55 -41 55 -2
0 -23 -11 -47 -24 -23 -13 -71 -34 -107 -46 -35 -12 -71 -25 -79 -28 -8 -3
-22 -7 -30 -8 -8 -1 -31 -5 -50 -9 -58 -10 -192 -7 -240 5 -62 15 -60 14 -104
33 -32 14 -42 15 -55 5 -14 -11 -14 -11 -3 4 11 14 10 18 -8 31 -23 16 -23 16
73 48 20 7 37 18 37 25 0 7 8 10 19 7 13 -3 29 4 46 21 14 14 31 26 38 26 7 0
28 13 47 29 19 17 46 39 60 50 l25 20 -55 58 -55 58 50 -48 c28 -26 55 -47 61
-47 14 0 54 43 54 58 0 7 4 12 9 12 5 0 17 12 26 27 13 20 15 31 7 44 -9 14
-8 16 8 12 13 -4 23 4 35 27 9 18 14 34 11 37 -3 3 1 12 9 20 23 22 30 64 14
74 -11 7 -11 9 3 9 20 0 40 58 26 77 -5 7 -4 13 3 15 8 3 14 33 17 87 l3 83
-70 -4 c-39 -1 -71 0 -71 4 0 4 30 8 68 10 l67 3 -1 30 c-4 109 -75 311 -108
309 -12 -1 -14 2 -7 10 7 8 3 22 -11 44 -22 35 -28 38 -47 20 -11 -11 -11 -9
0 9 12 19 9 26 -26 65 -71 79 -71 79 -126 17 -59 -65 -65 -60 -9 7 22 27 40
54 40 60 0 17 -49 47 -65 40 -9 -3 -12 0 -9 8 5 14 -140 91 -155 82 -5 -4 -11
-2 -13 4 -8 24 -243 55 -326 42 -29 -4 -32 -8 -28 -31 3 -14 7 -46 10 -71 4
-37 4 -40 -4 -15 -4 17 -12 48 -17 70 -8 37 -11 40 -38 37 -17 -2 -35 -10 -42
-18 -6 -9 -14 -11 -17 -6 -7 12 -76 -7 -76 -20 0 -5 -4 -6 -10 -3 -12 7 -70
-22 -70 -36 0 -6 -4 -7 -10 -4 -5 3 -23 -1 -41 -10 -22 -12 -29 -21 -24 -33 5
-13 4 -14 -6 -5 -10 10 -18 9 -41 -5 -15 -9 -28 -20 -28 -24 0 -4 -5 -8 -11
-8 -16 0 -119 -90 -119 -104 0 -7 20 -29 45 -49 25 -21 45 -43 45 -50 0 -6
-22 10 -48 36 -26 26 -53 47 -59 47 -6 0 -28 -24 -50 -52 -55 -76 -56 -78 -43
-92 8 -11 7 -14 -6 -12 -10 0 -24 -12 -32 -29 -9 -16 -21 -42 -29 -56 -7 -15
-14 -35 -16 -45 -2 -11 -9 -30 -15 -44 -11 -26 -39 -137 -44 -180 -3 -23 2
-26 52 -36 31 -6 62 -14 70 -17 14 -7 5 -6 -87 8 -39 6 -41 5 -47 -22 -3 -15
-5 -51 -4 -79 1 -28 -2 -56 -6 -62 -9 -16 3 -223 14 -237 5 -7 7 -15 4 -18 -7
-7 33 -144 44 -151 4 -2 33 7 66 21 32 13 60 22 62 20 3 -2 -23 -16 -56 -30
-33 -15 -60 -31 -60 -36 0 -17 23 -61 32 -61 4 0 8 -8 8 -17 0 -24 74 -129 88
-126 6 2 9 -3 7 -10 -2 -6 5 -23 16 -36 17 -21 23 -23 40 -13 18 11 18 11 7
-7 -10 -17 -9 -23 6 -40 11 -12 25 -21 33 -21 8 0 12 -4 9 -9 -3 -5 20 -30 50
-57 l57 -48 21 25 c11 14 34 41 49 60 32 38 18 13 -28 -52 l-29 -41 23 -20
c14 -10 31 -16 38 -14 8 3 12 2 8 -3 -3 -5 8 -19 25 -31 16 -12 30 -19 30 -15
0 3 10 -3 22 -15 12 -11 25 -20 30 -20 4 0 10 0 13 0 3 0 15 -9 27 -20 12 -11
30 -20 40 -20 10 0 18 -4 18 -9 0 -11 60 -33 60 -23 0 4 4 2 8 -4 4 -7 35 -23
70 -37 71 -29 66 -32 97 61 9 29 19 51 21 49 2 -2 -5 -30 -16 -62 -11 -32 -20
-64 -20 -70 0 -14 124 -50 139 -40 6 3 11 2 11 -4 0 -15 113 -36 312 -56 l67
-7 4 73 3 74 2 -72 2 -72 67 0 c37 1 72 4 78 7 5 3 26 5 47 3 21 -1 38 2 38 7
0 5 11 7 25 4 13 -2 33 -1 42 3 10 4 34 8 53 10 19 1 36 7 38 13 2 6 10 8 17
6 15 -6 112 22 132 38 8 7 5 25 -13 70 -14 33 -23 62 -21 64 2 3 15 -21 27
-53 13 -32 26 -62 30 -66 7 -8 132 50 138 65 2 4 11 8 20 8 21 1 52 23 52 38
0 6 6 9 13 7 6 -2 23 5 36 16 22 18 24 23 12 42 -14 22 -14 22 7 3 21 -18 22
-17 101 60 45 43 81 82 81 88 0 6 -22 29 -50 51 -27 22 -50 44 -50 49 0 4 25
-13 56 -40 l57 -48 24 28 c23 27 23 29 6 49 -17 21 -17 21 1 7 16 -13 20 -12
37 9 11 13 19 29 19 37 0 8 4 14 8 14 11 0 43 56 35 64 -3 3 -2 6 4 6 6 0 16
15 23 32 11 31 20 52 49 118 23 54 42 123 37 135 -2 7 -30 19 -61 26 -31 7
-58 15 -60 19 -2 4 25 0 60 -8 36 -9 67 -13 71 -9 10 9 33 129 38 193 2 17 6
36 10 42 3 5 6 25 5 44 0 18 2 79 6 135 l8 103 -74 2 -74 2 70 5 70 6 -1 60
c-1 53 -10 173 -19 245 -1 14 -6 52 -9 85 -12 114 -11 113 -64 109 -26 -1 -36
-1 -22 2 73 14 72 13 65 42 -4 15 -9 42 -11 60 -5 40 -12 88 -19 129 -6 38 -9
60 -25 163 -6 41 -14 82 -17 90 -3 8 -5 25 -4 37 1 13 -1 28 -5 34 -4 7 -9 26
-11 43 -2 17 -5 38 -7 46 -1 8 -6 39 -11 68 -4 29 -11 55 -15 57 -5 3 -6 14
-3 25 3 11 2 28 -2 37 -4 10 -9 34 -11 53 -2 19 -6 48 -10 63 -6 29 -7 29 -63
24 l-56 -5 53 10 c58 12 59 14 43 98 -7 35 -6 46 6 55 13 10 11 19 -16 73 -17
34 -28 62 -23 62 5 0 21 -27 37 -60 16 -33 30 -60 32 -60 12 0 123 65 123 72
0 4 5 8 11 8 18 0 119 70 119 82 0 6 3 8 6 5 10 -10 65 33 58 45 -4 6 -2 8 3
5 12 -8 113 71 113 87 0 6 -21 32 -47 58 -26 26 -43 48 -37 48 5 0 27 -20 47
-45 21 -25 43 -45 50 -45 11 0 97 81 97 91 0 3 23 29 50 59 28 30 50 63 50 74
0 11 3 16 6 13 8 -7 44 36 44 52 0 6 4 11 8 11 5 0 15 12 23 27 7 16 21 39 31
52 10 13 18 29 18 35 0 6 -27 26 -60 44 -33 18 -60 35 -60 38 0 3 29 -10 64
-30 49 -27 66 -33 73 -23 12 15 63 115 63 122 0 3 7 19 15 35 9 17 13 30 10
30 -4 0 1 10 9 22 9 12 16 32 16 45 0 12 4 24 9 27 4 3 21 49 36 101 33 109
34 105 -52 124 -30 7 -52 15 -50 17 3 3 33 -2 67 -11 34 -9 64 -14 66 -12 3 2
6 20 8 38 2 19 6 41 10 49 3 8 7 42 8 75 2 33 7 63 11 66 5 3 11 72 14 152 l5
146 -48 4 -49 3 47 2 47 2 0 70 c0 39 -5 70 -10 70 -6 0 -7 5 -3 11 8 13 -15
200 -27 215 -5 6 -7 13 -4 16 6 5 -20 127 -29 135 -2 3 -29 -2 -59 -11 -30 -9
-61 -16 -69 -15 -7 0 16 9 51 19 35 11 66 21 69 24 6 6 -16 92 -32 121 -5 11
-10 25 -11 30 0 12 -19 61 -56 143 -16 34 -28 63 -27 65 2 2 -60 116 -69 126
-3 5 -28 -8 -102 -52 -19 -12 -31 -16 -28 -10 4 7 32 26 62 43 30 17 55 35 55
39 0 19 -34 52 -47 46 -13 -4 -14 -3 -4 9 10 12 9 20 -4 40 -10 14 -21 26 -26
26 -5 0 -9 6 -9 14 0 8 -11 24 -26 35 -14 11 -24 21 -22 23 1 2 -5 14 -15 28
-16 22 -19 23 -40 11 -21 -13 -22 -13 -5 6 17 19 17 21 -7 43 -25 23 -25 23
-47 4 l-23 -19 19 23 20 23 -53 52 -52 52 -51 -55 c-54 -59 -46 -41 11 24 l34
39 -24 18 c-13 10 -28 19 -33 19 -4 0 -17 12 -28 26 -13 16 -27 24 -39 21 -10
-3 -16 0 -13 7 5 13 -50 49 -60 39 -3 -3 -6 -1 -6 5 0 14 -55 44 -64 35 -3 -4
-6 -1 -6 5 0 6 -14 18 -30 27 -16 9 -30 13 -30 9 0 -4 -7 -1 -16 7 -20 17
-125 59 -134 54 -4 -2 -15 -31 -25 -65 -10 -33 -22 -60 -26 -60 -5 0 3 29 16
65 l25 65 -23 9 c-21 9 -54 18 -149 41 -25 7 -51 9 -57 6 -5 -4 -13 -1 -16 5
-4 5 -21 9 -39 8 -17 -2 -36 0 -41 3 -6 3 -59 7 -118 7 l-109 1 4 -70 c2 -38
0 -70 -4 -70 -5 0 -8 29 -8 65 0 49 -4 67 -15 71 -8 4 -60 -1 -116 -11 -109
-18 -148 -16 -48 3 34 6 63 13 64 14 3 3 -22 123 -25 123 -1 0 -3 14 -5 30 -3
34 -4 36 -35 198 -20 105 -24 117 -44 118 -16 1 -17 2 -3 6 17 4 24 43 10 56
-3 4 -7 19 -9 34 -1 16 -4 39 -7 53 -2 14 -8 43 -11 65 -4 22 -10 47 -13 55
-3 8 -7 24 -8 35 -1 11 -5 36 -9 55 -4 19 -11 53 -14 75 -6 30 -13 41 -32 46
-20 6 -21 7 -5 8 11 1 30 16 43 34 12 17 51 63 87 102 36 38 65 74 65 80 0 7
-22 29 -50 51 -27 21 -49 43 -50 47 0 5 25 -13 55 -39 54 -45 56 -46 75 -29
11 10 20 21 20 25 0 4 20 29 45 56 25 27 45 54 45 61 0 7 4 13 10 13 8 0 36
36 75 99 6 9 12 18 15 21 18 17 70 96 70 106 0 7 -25 28 -55 46 -30 18 -55 37
-55 41 0 4 27 -11 61 -34 57 -39 61 -40 74 -22 13 16 15 21 15 38 0 3 9 14 20
25 11 11 20 26 20 34 0 8 4 16 8 18 10 4 76 118 68 118 -3 0 3 9 14 20 11 11
20 29 20 40 0 11 4 20 9 20 9 0 51 90 51 110 0 6 -28 24 -62 40 -35 16 -57 29
-50 30 7 0 35 -11 62 -25 27 -14 53 -25 58 -25 12 0 34 49 27 61 -4 5 -2 9 3
9 10 0 35 50 28 57 -3 3 1 12 9 20 8 8 15 25 15 38 0 13 4 26 9 29 5 4 17 32
26 64 9 31 21 66 26 77 20 46 39 109 33 114 -3 3 -33 16 -67 29 -64 23 -56 24
25 1 54 -15 58 -13 61 27 1 16 5 31 9 35 4 3 9 18 12 35 2 16 6 36 9 44 4 8 9
26 12 40 2 14 10 48 16 75 6 28 12 59 13 70 0 11 4 25 8 30 3 6 9 35 13 66 l7
57 -72 12 c-39 7 -69 14 -67 17 3 2 35 -1 71 -8 37 -6 69 -10 71 -8 2 2 6 27
9 54 3 28 8 66 11 85 3 19 7 61 9 92 3 32 7 61 9 65 3 4 6 35 7 68 1 33 3 76
3 95 l2 35 -60 3 c-33 2 -63 6 -67 10 -4 4 24 5 63 4 l70 -4 0 39 c0 21 1 131
4 246 l5 207 -78 2 c-63 1 -67 2 -22 5 91 5 103 10 96 39 -6 24 -18 224 -16
277 0 16 -2 33 -6 38 -3 5 -7 39 -10 75 -2 36 -6 69 -9 74 -2 4 -30 3 -61 -2
-32 -5 -65 -7 -73 -5 -9 2 15 7 52 12 43 5 71 13 74 21 3 8 -2 56 -11 107 -9
50 -18 103 -21 117 -2 14 -9 45 -15 70 -6 25 -12 54 -14 65 -9 60 -29 125 -39
125 -7 0 -37 -7 -67 -15 -30 -8 -56 -12 -58 -10 -4 3 28 13 101 31 30 7 32 11
15 51 -6 15 -11 31 -10 35 1 4 -3 20 -10 35 -6 15 -12 30 -13 33 -10 44 -17
60 -25 60 -5 0 -7 7 -4 15 4 8 0 25 -9 38 -8 12 -18 37 -21 55 -4 17 -12 32
-17 32 -5 0 -9 7 -9 15 0 13 -44 111 -56 124 -2 2 -31 -11 -65 -28 -33 -18
-62 -31 -64 -29 -2 2 23 19 55 37 64 35 71 50 40 81 -11 11 -20 26 -20 33 -1
17 -25 47 -38 47 -6 0 -9 6 -7 13 7 19 -32 60 -51 53 -13 -5 -14 -4 -6 7 9 11
5 20 -18 42 l-30 29 -53 -50 -52 -49 49 52 50 53 -29 30 -30 31 -38 -43 -39
-43 32 42 c17 24 29 47 25 53 -9 15 -143 80 -165 80 -19 0 -23 -11 -44 -104
-13 -53 -18 -18 -6 39 16 77 11 85 -50 85 l-50 0 -1 -42 -2 -43 -6 39 c-6 38
-15 48 -36 41z m-140 -116 c9 -17 15 -33 13 -35 -3 -2 -12 12 -21 31 -21 43
-13 47 8 4z m-84 -36 c13 -16 12 -17 -3 -4 -10 7 -18 15 -18 17 0 8 8 3 21
-13z m689 -116 c0 -2 -10 -12 -22 -23 l-23 -19 19 23 c18 21 26 27 26 19z
m-361 -152 c95 -48 221 -268 302 -525 17 -52 32 -101 35 -108 3 -9 -2 -11 -16
-7 -16 5 -23 -3 -41 -45 -12 -28 -24 -49 -26 -46 -3 2 2 17 10 33 34 67 33 71
-29 89 -76 22 -227 15 -299 -14 -103 -42 -177 -86 -248 -151 l-38 -34 53 -56
53 -56 -56 53 -56 53 -56 -62 c-82 -90 -237 -331 -237 -368 0 -7 -8 -25 -19
-39 -10 -15 -33 -66 -51 -114 -19 -49 -35 -87 -36 -85 -4 4 24 186 44 282 19
88 71 280 93 340 6 17 23 66 38 110 35 100 122 287 178 383 24 41 43 77 43 82
0 5 3 10 8 12 4 2 33 38 66 81 68 90 139 156 198 186 51 25 51 25 87 6z m154
-1029 c25 -26 49 -73 62 -116 18 -65 26 -131 28 -235 l2 -90 75 -6 75 -5 -77
-2 -77 -2 0 -47 c1 -52 -25 -215 -46 -297 -10 -39 -10 -53 -2 -58 8 -5 6 -8
-5 -8 -10 0 -19 -7 -19 -15 -1 -8 -2 -21 -3 -27 -1 -7 -3 -15 -6 -18 -3 -3
-18 -39 -34 -80 -15 -41 -45 -110 -67 -152 -21 -42 -39 -82 -39 -87 0 -6 27
-24 60 -41 33 -17 60 -33 60 -35 0 -3 -27 8 -60 25 -71 36 -77 36 -86 8 -4
-13 -10 -25 -13 -28 -4 -3 -26 -39 -51 -80 -40 -69 -82 -132 -134 -203 -13
-18 -17 -31 -10 -35 88 -60 115 -82 101 -82 -2 0 -27 18 -57 40 -59 44 -61 44
-106 -23 -16 -23 -33 -47 -39 -53 -5 -6 -21 -26 -35 -44 -14 -18 -32 -40 -40
-50 -8 -10 -26 -32 -40 -50 -32 -42 -62 -71 -68 -65 -3 2 -6 15 -7 27 -1 13
-3 29 -4 36 0 6 -16 13 -33 14 l-33 1 34 4 c33 4 33 5 26 41 -4 20 -9 116 -11
212 l-4 175 -53 6 -52 6 57 1 57 2 0 48 c1 60 7 130 15 162 3 14 8 50 11 80 6
60 13 108 20 127 2 8 -7 15 -23 19 -45 10 -49 14 -9 10 20 -3 37 -3 37 -1 0 2
7 37 16 77 9 40 17 80 19 88 1 8 4 22 7 30 3 8 19 59 36 113 l30 97 -26 15
-27 14 31 -5 c27 -5 33 -3 39 17 9 32 18 54 49 117 14 30 26 60 26 68 0 8 4
14 9 14 5 0 14 12 20 28 12 30 29 59 49 80 19 21 15 36 -15 54 -16 10 -41 29
-58 43 -16 15 -2 7 33 -17 l63 -43 27 35 c57 74 108 123 161 155 68 41 104 44
134 11z m-583 -548 c10 -6 7 -7 -10 -2 -14 3 -32 11 -40 16 -10 6 -7 7 10 2
14 -3 32 -11 40 -16z m700 -333 c19 -7 28 -13 20 -13 -8 0 -31 6 -50 13 -19 7
-28 13 -20 13 8 0 31 -6 50 -13z m-839 -103 c-13 -2 -27 0 -32 5 -6 6 3 7 23
4 28 -4 29 -6 9 -9z m983 -439 c-26 -204 -130 -608 -199 -768 -7 -16 -27 -64
-45 -105 -138 -321 -359 -656 -618 -939 -42 -46 -79 -88 -81 -93 -2 -6 19 -30
45 -55 l49 -45 -45 35 c-25 18 -50 37 -56 40 -7 4 -35 -23 -69 -67 -31 -41
-69 -79 -86 -86 -16 -7 -29 -16 -29 -20 0 -5 -6 -10 -14 -12 -8 -2 -72 -58
-142 -124 -107 -101 -433 -401 -483 -446 -47 -41 -341 -341 -341 -347 0 -4
-21 -29 -48 -57 -61 -64 -229 -286 -250 -333 -10 -20 -22 -40 -29 -46 -10 -9
-103 -172 -103 -181 0 -1 -18 -40 -39 -86 -21 -46 -47 -108 -57 -138 -9 -30
-23 -68 -30 -85 -16 -41 -54 -176 -64 -233 -25 -138 -39 -229 -40 -247 0 -11
-3 -58 -7 -105 -5 -73 -7 -80 -14 -50 -16 69 -22 411 -10 535 15 144 52 325
93 455 17 52 31 99 33 105 1 5 7 21 13 35 6 14 25 59 43 100 17 41 55 123 85
183 30 59 51 107 47 107 -5 0 -2 4 4 8 7 4 42 57 79 117 82 136 308 460 344
495 5 4 30 35 128 155 81 101 395 452 527 591 223 234 302 319 309 333 5 9 13
18 17 21 19 13 109 134 109 147 0 8 16 20 34 28 19 8 39 21 43 28 4 8 13 16
19 18 28 10 434 486 434 508 0 6 4 11 8 11 18 0 282 371 282 396 0 7 4 14 9
16 10 4 86 131 120 201 12 26 25 47 27 47 2 0 1 -21 -2 -47z m-1374 -373 c-8
-5 -28 -9 -45 -9 -30 2 -30 2 5 9 51 11 57 11 40 0z m358 -97 c-10 -2 -26 -2
-35 0 -10 3 -2 5 17 5 19 0 27 -2 18 -5z m-412 -785 l29 -33 -32 29 c-31 28
-38 36 -30 36 2 0 16 -15 33 -32z m-56 -43 c13 -14 21 -25 18 -25 -2 0 -15 11
-28 25 -13 14 -21 25 -18 25 2 0 15 -11 28 -25z m-99 -102 c13 -16 12 -17 -3
-4 -17 13 -22 21 -14 21 2 0 10 -8 17 -17z m190 -80 c13 -16 12 -17 -3 -4 -10
7 -18 15 -18 17 0 8 8 3 21 -13z m-420 -280 c13 -16 12 -17 -3 -4 -10 7 -18
15 -18 17 0 8 8 3 21 -13z m990 -260 c13 -16 12 -17 -3 -4 -10 7 -18 15 -18
17 0 8 8 3 21 -13z m154 -43 c10 -11 16 -20 13 -20 -3 0 -13 9 -23 20 -10 11
-16 20 -13 20 3 0 13 -9 23 -20z m-16 -144 c-2 -2 -22 -6 -44 -9 -28 -5 -34
-4 -20 3 19 8 73 14 64 6z m-296 -413 c-7 -2 -19 -2 -25 0 -7 3 -2 5 12 5 14
0 19 -2 13 -5z m-50 -10 c-7 -2 -19 -2 -25 0 -7 3 -2 5 12 5 14 0 19 -2 13 -5z
m-55 -10 c-18 -4 -25 -43 -12 -56 4 -4 8 -19 10 -34 3 -32 8 -58 29 -163 8
-41 17 -88 20 -105 3 -16 7 -39 9 -50 3 -11 5 -28 5 -37 1 -13 10 -18 34 -19
21 -1 25 -3 12 -6 -34 -8 -38 -19 -25 -75 7 -29 14 -68 16 -87 3 -18 5 -36 6
-40 3 -13 -15 -41 -23 -35 -8 5 -48 -12 -59 -25 -5 -6 -45 -29 -97 -56 -18
-10 -33 -24 -33 -32 0 -8 -5 -11 -10 -8 -6 4 -26 -6 -45 -22 -18 -15 -54 -44
-79 -63 -25 -19 -46 -40 -46 -46 0 -6 12 -21 26 -35 14 -13 35 -37 46 -54 11
-16 -3 -6 -30 23 -27 28 -52 52 -57 52 -14 0 -104 -93 -99 -102 3 -4 -2 -8
-10 -8 -8 0 -22 -10 -30 -22 -14 -20 -14 -24 2 -42 17 -21 17 -21 -4 -3 -21
18 -22 17 -43 -9 -11 -14 -18 -30 -15 -35 3 -5 -1 -9 -10 -9 -8 0 -20 -13 -28
-30 -7 -16 -16 -30 -19 -30 -6 0 -79 -105 -79 -114 0 -3 27 -19 60 -38 33 -18
60 -36 60 -40 0 -4 -27 9 -61 29 l-61 37 -19 -25 c-10 -13 -17 -30 -14 -36 2
-7 0 -13 -6 -13 -5 0 -14 -12 -21 -27 -18 -46 -40 -96 -55 -125 -7 -14 -13
-35 -13 -45 0 -10 -5 -24 -11 -30 -5 -5 -11 -21 -13 -34 -2 -13 -9 -37 -16
-54 -6 -16 -13 -50 -13 -75 l-2 -44 55 -9 c30 -5 59 -12 63 -16 4 -5 -22 -2
-58 4 -65 13 -66 12 -75 -10 -5 -13 -9 -32 -10 -42 -9 -214 -9 -284 1 -364 6
-53 14 -101 18 -108 6 -9 22 -9 72 3 72 16 95 13 28 -4 -90 -23 -94 -25 -91
-51 2 -13 7 -28 12 -34 4 -5 10 -27 14 -47 4 -21 11 -38 17 -38 6 0 8 -4 4
-10 -5 -8 79 -199 94 -210 3 -3 7 -11 9 -19 2 -11 50 -88 69 -110 2 -3 31 14
66 38 60 41 46 23 -24 -30 l-34 -27 24 -26 c13 -14 28 -23 34 -19 6 4 7 1 2
-6 -9 -15 33 -63 48 -54 6 4 7 1 2 -6 -4 -7 2 -22 16 -37 l23 -24 25 22 c22
20 23 20 8 2 -9 -11 -17 -25 -17 -31 0 -16 93 -94 107 -89 7 3 10 -1 7 -8 -3
-7 8 -21 23 -31 15 -10 39 -29 53 -42 l25 -24 17 22 c10 11 27 33 38 47 29 36
14 6 -18 -37 l-25 -34 23 -19 c13 -10 29 -17 37 -14 7 3 12 0 10 -6 -1 -6 12
-18 28 -27 17 -9 32 -19 35 -22 3 -3 31 -20 62 -38 l57 -32 15 23 c8 13 22 40
32 61 29 61 35 42 7 -23 -30 -69 -26 -79 33 -87 88 -12 185 42 225 124 40 82
27 185 -32 248 -10 11 -36 40 -57 63 l-38 44 -35 -28 -34 -28 28 30 c15 17 27
35 27 40 0 6 -16 27 -35 48 -19 21 -37 46 -40 57 -4 10 -11 19 -16 19 -5 0 -9
6 -9 14 0 8 -6 21 -13 28 -13 14 -61 110 -72 146 -5 18 -11 21 -28 16 -20 -6
-21 -5 -4 7 18 14 18 13 -11 99 -3 8 -4 19 -3 24 1 5 -1 16 -5 25 -9 22 -12
61 -13 154 -1 66 -4 77 -19 78 -15 0 -14 1 2 8 14 5 23 26 33 72 8 35 15 69
17 74 9 30 36 95 47 115 5 8 13 25 18 37 6 11 15 24 20 28 19 11 12 22 -44 59
-30 20 -55 39 -55 41 0 3 27 -12 60 -35 57 -39 60 -40 70 -20 21 39 170 180
190 180 5 0 10 -9 10 -19 0 -17 6 -19 38 -16 32 4 33 3 7 -3 -31 -7 -42 -30
-30 -60 4 -9 9 -28 10 -42 2 -14 5 -36 8 -50 3 -14 11 -56 17 -95 6 -38 14
-77 17 -85 3 -8 6 -24 7 -35 8 -76 18 -105 39 -106 17 -1 18 -2 5 -6 -18 -4
-25 -43 -11 -56 3 -4 7 -19 9 -34 1 -16 4 -39 7 -53 3 -14 11 -56 17 -95 6
-38 14 -77 17 -85 3 -8 7 -26 9 -40 2 -14 5 -34 8 -45 2 -11 5 -28 5 -39 1
-16 7 -18 59 -13 l57 5 -52 -10 c-59 -12 -61 -18 -42 -93 5 -22 11 -49 13 -60
22 -131 57 -320 60 -322 2 -2 33 3 69 11 37 7 65 10 62 6 -3 -4 -26 -11 -51
-15 -26 -3 -53 -9 -60 -12 -14 -5 -19 -44 -7 -56 3 -4 7 -19 9 -34 2 -26 4
-41 18 -113 2 -14 11 -68 20 -120 24 -141 24 -140 49 -141 l22 0 -22 -9 c-15
-6 -21 -15 -17 -24 7 -19 -21 -31 -96 -40 -30 -4 -71 -9 -90 -12 -73 -11 -298
-9 -375 3 -44 7 -85 11 -92 8 -7 -2 -15 0 -18 4 -3 7 -85 24 -102 23 -1 0 -26
8 -55 19 -29 10 -55 19 -59 19 -3 0 -14 -27 -24 -60 -10 -34 -22 -63 -26 -66
-5 -2 1 21 11 52 26 74 25 82 -7 90 -16 4 -52 17 -80 30 -29 13 -53 20 -53 16
0 -4 -4 -2 -8 4 -4 6 -29 21 -57 35 -27 13 -72 37 -99 53 l-48 29 -19 -24
c-10 -13 -26 -39 -36 -56 -10 -18 -21 -33 -26 -33 -4 0 10 27 33 60 l40 59
-27 18 c-56 34 -167 127 -226 189 l-61 63 -52 -44 c-29 -25 -55 -45 -59 -45
-4 0 18 21 48 47 61 51 62 53 8 111 -17 18 -31 35 -31 37 0 2 -16 27 -35 56
-19 30 -50 84 -67 121 -18 38 -36 68 -40 68 -4 0 -33 -11 -64 -25 -32 -14 -59
-24 -61 -22 -2 2 24 16 58 31 48 20 60 30 56 44 -3 9 -21 64 -41 122 -20 58
-43 140 -52 183 -16 76 -16 77 -48 78 l-31 1 30 7 c17 4 29 12 28 17 -13 69
-24 212 -26 324 l-2 95 -70 6 -70 5 73 2 73 2 -2 33 c-1 30 7 140 15 197 6 40
16 102 22 135 11 56 10 58 -36 72 l-45 13 40 -6 c22 -3 44 -6 50 -7 5 -1 11 9
13 23 7 47 65 212 108 307 13 28 24 56 24 61 0 4 -27 21 -60 37 -33 16 -58 30
-56 32 2 3 31 -10 65 -26 l61 -31 17 34 c56 108 69 132 75 136 12 9 58 80 58
90 0 4 3 10 8 12 4 2 22 23 41 47 l34 43 -34 27 c-66 51 -83 72 -23 27 l61
-45 59 72 c65 80 115 135 188 208 l49 49 -19 22 c-10 12 -31 33 -46 46 -16 13
-28 29 -28 35 0 6 22 -10 48 -36 26 -26 52 -47 57 -47 6 0 31 21 56 48 61 62
249 236 260 240 19 8 7 35 -38 85 l-47 52 57 -54 56 -55 43 41 c111 105 133
123 153 122 16 -1 17 -2 3 -6z m477 -53 c-16 -4 -39 -8 -50 -8 -16 0 -15 2 5
8 14 4 36 8 50 8 22 0 22 -1 -5 -8z m-285 -400 c-8 -5 -26 -9 -40 -9 l-25 1
25 8 c14 4 32 8 40 9 13 1 13 0 0 -9z m-1149 -17 c13 -16 12 -17 -3 -4 -17 13
-22 21 -14 21 2 0 10 -8 17 -17z m2019 -478 c36 -9 88 -23 115 -32 51 -15 206
-88 235 -110 181 -138 262 -222 364 -380 36 -56 66 -104 66 -106 0 -2 17 -40
37 -83 20 -43 38 -83 39 -89 1 -5 16 -52 32 -102 57 -170 76 -303 77 -538 1
-115 -2 -217 -6 -225 -4 -8 -15 -58 -25 -110 -33 -185 -41 -185 -42 2 -1 171
-16 299 -52 438 -37 145 -118 340 -141 340 -5 0 -7 5 -4 10 24 39 -291 429
-336 417 -11 -3 -16 0 -13 8 15 37 -258 182 -420 224 -113 30 -126 28 -127
-11 l-2 -33 -6 35 -6 35 -104 8 c-93 8 -111 6 -172 -13 -38 -12 -80 -20 -95
-17 -31 6 -151 -23 -214 -52 -121 -55 -305 -175 -317 -208 -3 -8 10 -32 33
-56 l39 -42 -46 43 -46 43 -58 -63 c-100 -107 -235 -337 -239 -405 0 -13 -4
-23 -8 -23 -8 0 -48 -167 -48 -201 -1 -20 -2 -21 -10 -8 -26 44 -1 270 45 419
32 103 113 261 181 354 66 92 196 222 291 293 43 32 80 60 83 64 3 3 71 38
152 77 81 40 152 80 157 90 7 12 10 13 11 3 0 -15 30 -13 185 13 103 18 309
13 395 -9z m-1425 -165 c10 -11 16 -20 13 -20 -3 0 -13 9 -23 20 -10 11 -16
20 -13 20 3 0 13 -9 23 -20z m2265 6 c0 -2 -8 -10 -17 -17 -16 -13 -17 -12 -4
4 13 16 21 21 21 13z m-2279 -93 c13 -16 12 -17 -3 -4 -10 7 -18 15 -18 17 0
8 8 3 21 -13z m-1628 -330 c-7 -2 -21 -2 -30 0 -10 3 -4 5 12 5 17 0 24 -2 18
-5z m3397 -17 c0 -2 -8 -10 -17 -17 -16 -13 -17 -12 -4 4 13 16 21 21 21 13z
m-2733 -32 c-3 -3 -12 -4 -19 -1 -8 3 -5 6 6 6 11 1 17 -2 13 -5z m2317 -135
c30 -14 43 -16 53 -7 11 8 12 7 7 -5 -3 -10 2 -20 15 -27 12 -6 21 -7 21 -3 0
4 5 0 11 -9 5 -10 14 -18 19 -18 15 0 48 -28 133 -113 l79 -78 56 41 c31 23
46 31 32 18 -14 -13 -39 -33 -55 -45 -26 -19 -28 -24 -17 -40 6 -10 17 -27 22
-38 6 -11 19 -33 30 -50 23 -35 60 -114 60 -126 0 -5 4 -9 8 -9 4 0 8 -8 9
-19 1 -10 9 -36 19 -57 9 -21 18 -46 19 -54 2 -8 10 -46 18 -85 20 -88 27
-153 28 -232 l1 -63 71 -2 72 -2 -72 -3 -73 -4 -1 -42 c-1 -52 -6 -97 -20
-164 -6 -29 -10 -55 -10 -58 0 -2 -9 -28 -20 -57 -18 -50 -18 -54 -2 -67 17
-12 17 -13 -2 -7 -17 5 -26 -6 -58 -72 -51 -105 -64 -125 -129 -196 l-37 -41
52 -55 52 -55 -52 49 c-31 30 -57 47 -66 43 -15 -5 -24 11 -32 58 -2 11 -6 34
-9 50 -17 97 -22 109 -46 116 l-25 7 24 1 c20 1 23 5 17 29 -3 15 -8 38 -11
52 -25 128 -35 179 -40 200 -3 14 -11 56 -18 95 -11 66 -14 70 -42 76 -22 5
-24 7 -8 8 12 0 24 4 27 9 4 7 -8 71 -22 112 -2 8 -6 26 -8 40 -1 14 -4 34 -6
45 -3 11 -8 38 -12 60 -4 22 -10 47 -13 55 -4 8 -5 19 -4 24 4 17 -21 116 -29
116 -4 0 -6 8 -4 18 4 13 -16 135 -30 187 -1 6 -6 33 -11 60 -4 28 -10 54 -13
59 -3 5 -7 21 -8 35 -2 14 -5 35 -8 46 -2 11 -5 28 -5 38 -1 16 -8 17 -48 13
l-48 -5 43 10 c34 8 42 14 42 33 0 12 -3 26 -6 29 -4 4 -8 19 -10 34 -1 16 -5
38 -8 51 -5 22 -3 23 27 17 18 -4 50 -16 71 -26z m-519 -79 c-3 -5 -18 -9 -33
-9 l-27 1 30 8 c17 4 31 8 33 9 2 0 0 -3 -3 -9z m348 -77 c-7 -2 -19 -2 -25 0
-7 3 -2 5 12 5 14 0 19 -2 13 -5z m-273 -403 c-14 -4 -36 -8 -50 -8 l-25 0 25
8 c14 4 36 8 50 8 l25 0 -25 -8z m-649 -48 c-18 -2 -37 0 -42 5 -5 5 11 6 34
3 41 -4 41 -5 8 -8z m1694 8 c-11 -5 -27 -9 -35 -9 -9 0 -8 4 5 9 11 5 27 9
35 9 9 0 8 -4 -5 -9z m-612 -7 c-7 -2 -19 -2 -25 0 -7 3 -2 5 12 5 14 0 19 -2
13 -5z m-43 -7 c0 -2 -13 -6 -29 -8 -17 -2 -28 -1 -25 4 5 8 54 12 54 4z
m-2257 -173 c-7 -2 -21 -2 -30 0 -10 3 -4 5 12 5 17 0 24 -2 18 -5z m1287
-237 c0 -2 -13 -9 -30 -15 -35 -12 -41 -5 -7 9 25 10 37 12 37 6z m1079 -50
c-2 -2 -22 -6 -44 -9 -28 -5 -34 -4 -20 3 19 8 73 14 64 6z m531 -372 c23 -9
39 -18 37 -20 -2 -3 -24 4 -48 15 -54 24 -45 27 11 5z m-437 -91 c-7 -2 -19
-2 -25 0 -7 3 -2 5 12 5 14 0 19 -2 13 -5z m-50 -10 c-7 -2 -19 -2 -25 0 -7 3
-2 5 12 5 14 0 19 -2 13 -5z m-2303 -266 c0 -2 -10 -12 -22 -23 l-23 -19 19
23 c18 21 26 27 26 19z m3145 -137 c10 -11 16 -20 13 -20 -3 0 -13 9 -23 20
-10 11 -16 20 -13 20 3 0 13 -9 23 -20z m-1115 -30 c-14 -4 -36 -8 -50 -8 -22
0 -22 1 5 8 17 4 39 8 50 8 16 0 15 -2 -5 -8z m-153 -122 c-3 -7 -5 -2 -5 12
0 14 2 19 5 13 2 -7 2 -19 0 -25z m-440 -95 c-2 -16 -4 -3 -4 27 0 30 2 43 4
28 2 -16 2 -40 0 -55z m457 37 c4 -25 3 -31 -4 -20 -5 8 -10 26 -10 39 0 32 6
24 14 -19z m279 -587 c-7 -2 -19 -2 -25 0 -7 3 -2 5 12 5 14 0 19 -2 13 -5z
m472 -333 c-16 -4 -43 -8 -60 -8 -29 1 -29 1 5 8 19 4 46 7 60 8 22 0 22 -1
-5 -8z m-388 -146 c-3 -3 -12 -4 -19 -1 -8 3 -5 6 6 6 11 1 17 -2 13 -5z
m-1260 -136 c-3 -8 -6 -5 -6 6 -1 11 2 17 5 13 3 -3 4 -12 1 -19z m1676 -215
c-7 -2 -19 -2 -25 0 -7 3 -2 5 12 5 14 0 19 -2 13 -5z m-1153 -77 c0 -2 -8
-10 -17 -17 -16 -13 -17 -12 -4 4 13 16 21 21 21 13z m-1279 -43 c13 -16 12
-17 -3 -4 -10 7 -18 15 -18 17 0 8 8 3 21 -13z m1239 13 c0 -2 -8 -10 -17 -17
-16 -13 -17 -12 -4 4 13 16 21 21 21 13z m-1199 -43 c13 -16 12 -17 -3 -4 -10
7 -18 15 -18 17 0 8 8 3 21 -13z m820 -34 c33 -18 79 -53 102 -79 176 -196
121 -497 -114 -615 -38 -20 -75 -28 -159 -35 -126 -11 -145 -17 -194 -61 -67
-59 -97 -155 -77 -254 5 -27 8 -51 6 -53 -5 -5 -138 133 -158 165 -34 53 -75
148 -83 193 -27 159 19 435 92 545 48 72 52 77 126 132 149 114 319 136 459
62z m459 26 c0 -2 -10 -9 -22 -15 -22 -11 -22 -10 -4 4 21 17 26 19 26 11z
m117 -241 c-3 -3 -12 -4 -19 -1 -8 3 -5 6 6 6 11 1 17 -2 13 -5z m-186 -561
c13 -16 12 -17 -3 -4 -10 7 -18 15 -18 17 0 8 8 3 21 -13z m40 -30 c13 -16 12
-17 -3 -4 -10 7 -18 15 -18 17 0 8 8 3 21 -13z m-411 -432 c-5 -11 -15 -23
-21 -27 -6 -3 -3 5 6 20 20 30 30 35 15 7z m397 -38 c-3 -10 -5 -4 -5 12 0 17
2 24 5 18 2 -7 2 -21 0 -30z m10 -75 c-3 -7 -5 -2 -5 12 0 14 2 19 5 13 2 -7
2 -19 0 -25z m833 -93 c13 -14 21 -25 18 -25 -2 0 -15 11 -28 25 -13 14 -21
25 -18 25 2 0 15 -11 28 -25z"/>
</g>
</svg>
