<svg width="42" height="93" viewBox="0 0 42 93" fill="none" xmlns="http://www.w3.org/2000/svg">
<path d="M17.745 0.0839233C13.8049 0.265968 10.5441 0.773788 7.87207 1.60738C6.26433 2.10561 5.29817 2.53678 4.10557 3.27456C1.98455 4.58723 0.769303 6.18733 0.210743 8.36234C0.0597805 8.96597 0.0446843 9.27258 0.00694374 11.4763C-0.0307968 14.2933 0.089973 18.4037 0.256031 20.0039C0.573052 23.0508 1.01839 24.8329 2.03739 27.1229C3.02619 29.3362 3.80364 30.4764 7.87962 35.7367C13.6313 43.1623 14.9673 45.0211 15.1786 45.8931C15.3372 46.5638 15.0428 47.292 13.903 49.0837C13.1633 50.2431 12.8312 50.703 8.77785 56.1836C5.32836 60.8402 4.38485 62.1912 3.42624 63.8296C0.807043 68.3138 0.263579 71.0732 0.346609 79.5529C0.384349 83.4813 0.45983 83.9891 1.29767 85.915C3.05638 89.9775 8.23438 92.3442 16.6581 92.9286C18.8093 93.0724 24.8251 92.9861 26.7122 92.7849C33.0828 92.0855 37.2569 90.4949 39.6723 87.86C40.3365 87.1318 40.8196 86.3174 41.2876 85.1389C41.9065 83.5675 41.982 83.0789 41.9971 80.4631C42.0424 71.811 41.5744 68.7833 39.6496 65.1135C38.4797 62.8906 37.4456 61.3863 33.1658 55.7428C29.3314 50.6838 28.5614 49.6203 27.7991 48.3363C27.1424 47.2345 26.8631 46.5733 26.8631 46.1422C26.8631 45.7206 27.1726 45.0786 27.9425 43.8618C28.7652 42.5683 29.1955 41.9838 33.4149 36.3978C37.8834 30.4764 38.5627 29.4895 39.4383 27.6116C40.412 25.5324 40.9252 23.8939 41.2423 21.8818C41.5895 19.6685 41.6197 19.0074 41.6197 13.728C41.6197 8.13238 41.6348 8.31443 41.0385 6.85804C39.7553 3.71531 36.0039 1.54989 30.1843 0.610901C26.8782 0.0647583 22.1606 -0.126869 17.745 0.0839233ZM24.9761 3.52368C31.5203 3.94527 36.5322 5.45914 37.8834 7.42335C38.7665 8.6881 37.1889 10.3361 33.8602 11.6105C26.2517 14.5424 16.6354 14.7436 8.74765 12.1374C6.3549 11.3518 4.79999 10.5278 4.03763 9.65584C3.41114 8.92764 3.31302 8.30485 3.72061 7.72038C4.27917 6.92511 5.23024 6.27357 6.78515 5.62202C9.51756 4.48183 13.1859 3.79196 18.0696 3.49493C19.2622 3.41828 23.6703 3.43745 24.9761 3.52368ZM39.3477 14.9927C39.4383 19.4002 39.2043 21.7381 38.5099 23.5011C37.8758 25.1012 36.2681 27.6211 32.9016 32.2586C32.0109 33.4946 30.6523 35.3726 29.8899 36.4265C26.614 40.949 25.5196 42.712 24.8327 44.5229C24.5836 45.1936 24.5609 45.3182 24.5609 46.1134C24.5685 47.1195 24.7119 47.6465 25.4214 49.2657C26.2819 51.2299 26.6971 51.8432 31.6562 58.5215C35.8831 64.2129 36.7813 65.4872 37.8305 67.2885C38.842 69.0132 39.1062 69.7893 39.4005 71.8877C39.5666 73.1141 39.7402 78.5755 39.6647 80.5589C39.5439 83.9124 38.7438 85.2155 35.9058 86.7294C33.1431 88.1954 29.6635 89.0769 25.0516 89.4793C23.3306 89.6326 18.1979 89.6326 16.5599 89.4889C11.5556 89.029 7.90227 87.9654 5.1623 86.1737C4.20369 85.5509 3.59984 84.8227 3.20734 83.807C2.7922 82.7435 2.73181 82.1399 2.67897 78.7863C2.5884 72.7979 2.89032 70.3738 3.99989 68.2659C5.04908 66.2633 5.86428 65.0656 10.6347 58.5215C14.7031 52.9355 14.9296 52.6097 15.7749 51.182C16.4467 50.0418 17.2619 48.1735 17.4582 47.3207C17.7903 45.8739 17.3978 44.5229 15.9108 42.0126C14.9899 40.4603 14.3031 39.4926 10.7555 34.7594C6.29452 28.8092 5.10947 27.1229 4.01499 25.197C3.19979 23.7598 2.90542 22.8975 2.62614 21.1536C2.50537 20.4254 2.46008 19.5344 2.39969 16.7653C2.35441 14.849 2.33931 13.1339 2.36195 12.9519C2.43744 12.4824 2.62614 12.5207 3.63758 13.1914C6.15111 14.8682 9.31376 16.085 12.8614 16.7366C17.2619 17.5414 22.9381 17.5797 27.6557 16.8324C31.9807 16.1425 35.702 14.6957 38.5627 12.5878C38.7514 12.4536 38.9929 12.3387 39.0986 12.3387H39.2949L39.3477 14.9927Z" fill="black" stroke-width="3"
	stroke="#302F2F"/>
<path d="M33.4674 24.1911C32.3729 25.0343 30.4632 26.2512 29.2857 26.8452C22.8397 30.1412 16.8842 29.7771 10.2947 25.6954C9.67575 25.3122 8.76243 24.699 8.27935 24.3253C7.78872 23.9612 7.38867 23.6737 7.38867 23.7025C7.38867 23.7216 7.65286 24.2199 7.97742 24.8043C8.29445 25.3888 8.55108 25.9062 8.54353 25.9445C8.49824 26.1649 10.3173 28.7903 14.1291 34.0122C17.6843 38.8796 18.3183 39.7898 19.043 40.9875C20.0619 42.6643 20.1223 42.9325 20.7866 48.6527C20.8998 49.5725 21.013 50.3774 21.0432 50.454C21.1036 50.5977 21.2772 49.3042 21.5112 46.928C21.5942 46.0561 21.7452 44.8393 21.8433 44.226C22.2358 41.7923 22.3113 41.6582 27.7308 33.993C31.754 28.292 33.0522 26.3757 33.2259 25.8487C33.2711 25.7146 33.5655 25.1397 33.8674 24.5744C34.1769 24.0091 34.4185 23.53 34.4034 23.5108C34.3883 23.5013 33.9656 23.8079 33.4674 24.1911Z" fill="black"/>
<path d="M21.0071 65.1898C20.6976 66.1575 20.1919 67.4127 19.8749 68.0163C19.256 69.2044 18.5917 69.7027 11.4135 74.4551C10.4926 75.0683 9.45851 75.7869 9.11129 76.0648C6.95253 77.7799 5.60142 79.5812 5.08815 81.4304C4.98248 81.7945 4.99003 81.8041 5.20137 81.967C5.32214 82.0532 5.40517 82.1586 5.39008 82.197C5.16363 82.6473 8.37158 84.142 11.0964 84.8606C15.0215 85.8858 19.7541 86.2212 24.7887 85.8188C29.0308 85.4834 32.8878 84.4582 35.8241 82.8964C36.6242 82.4748 36.9789 82.1778 36.9789 81.9383C36.9789 81.8712 37.0544 81.7562 37.1525 81.6987C37.2431 81.6412 37.3261 81.5742 37.3412 81.5646C37.3941 81.5071 36.9789 80.3573 36.7298 79.8591C36.3298 79.0638 35.3863 77.8565 34.5409 77.0517C33.4917 76.0456 32.4199 75.2791 29.1289 73.1616C26.1323 71.2453 24.4868 70.1051 23.6037 69.3769C22.7885 68.6966 22.4186 68.1026 21.7317 66.3683L21.1279 64.8257L21.0071 65.1898Z" fill="black"/>
</svg>
