<svg width="1707" height="1242" viewBox="0 0 1707 1242" fill="none" xmlns="http://www.w3.org/2000/svg">
<path d="M842 1.86676C834.4 5.33343 829.333 13.2001 829.333 21.3334C829.333 24.4001 828.533 25.3334 824.933 26.5334C820.267 28.1334 814.8 33.2001 812.133 38.2668C809.867 42.6668 810.4 52.1334 813.2 57.3334C815.867 62.4001 824.133 68.0001 829.067 68.0001C832 68.0001 832 68.2668 832 84.6668V101.333H815.6H799.333L796.933 94.6668C792.933 83.3334 781.467 77.6001 770.267 81.2001C764.933 82.9334 757.867 90.2668 756.533 95.2001C755.867 97.8668 754.667 98.5334 749.333 99.2001C734.533 101.2 726.4 116.533 732.8 130.133C735.467 135.867 744.533 141.333 750.933 141.333C755.067 141.333 755.867 141.867 756.667 144.933C758.933 153.867 767.2 160 777.333 160C787.467 160 796.267 152.667 798 142.667L798.933 137.333H815.467H832V165.733V194.133L825.467 195.867C804.267 201.2 781.2 218.267 768.8 237.6C759.6 252 753.333 272.533 753.333 288.267V295.333L749.867 290.933C745.733 285.733 737.467 280.8 729.467 278.667C715.467 274.933 699.067 281.6 690.8 294.267L686.267 301.2L680.4 296C669.2 286.267 652.667 284 639.867 290.533C632.267 294.533 628.533 298 624.267 305.2L620.933 310.933L618.533 306.267C605.733 281.467 568.533 280.267 554.667 304.267C552.533 308.133 550.267 313.467 549.867 316.133L549.066 320.8L541.466 313.2C535.333 307.067 532.133 305.067 526 303.333C517.6 300.8 508.4 301.333 500.533 304.667C494 307.333 484.8 316.533 482 322.933C480.533 326.133 479.333 328.8 479.2 329.067C479.066 329.2 476.266 328 472.933 326.133C460.133 319.333 444.933 320.8 433.066 329.733C426.8 334.533 420.533 344.667 419.333 352.267C418.8 355.067 418.266 357.333 418 357.333C417.866 357.333 414.8 356 411.333 354.533C394.266 346.933 374.4 353.733 365.2 370.133C360.8 377.733 359.866 378.4 357.466 375.467C356.666 374.4 352.8 372.267 349.066 370.667C343.333 368.267 340.4 367.733 332.666 368.267C314.533 369.467 302.533 380.133 298.533 398.533L297.066 405.333L293.733 401.333C285.6 391.6 268.933 386.8 255.733 390.533C242 394.4 231.2 407.467 229.733 422.133L228.933 429.467L226.133 426.8C217.866 419.067 199.733 416 188.933 420.533C177.066 425.467 167.866 436.933 165.866 449.067L164.933 454.8L161.466 452.4C159.6 451.2 154.8 449.467 150.8 448.533C129.866 443.6 109.333 457.733 105.866 479.733C104.933 485.6 104.133 486.267 101.733 483.867C100.933 483.067 96.7998 481.6 92.5331 480.533C75.3331 476.533 57.7331 485.2 50.1331 501.333C45.9998 510.4 46.2664 524 51.0664 532.533C53.9998 537.733 54.1331 538.8 52.2664 538C44.5331 534.933 35.0665 534.4 27.7331 536.533C-5.33355 546.133 -9.60022 590.8 21.1998 605.333L28.1331 608.533L22.7998 613.867C14.5331 622.533 12.6664 627.2 12.6664 639.333C12.6664 648.667 13.1998 650.933 16.6664 657.2C22.9331 668.667 34.5331 675.733 47.1998 675.867C52.7998 676 53.4664 676.267 52.6664 678.267C45.5998 694.4 45.3331 703.2 51.3331 715.467C55.7331 724.4 64.1331 731.333 75.5998 735.333C75.8665 735.467 74.6665 738.8 73.1998 742.8C69.3331 752.667 70.1331 765.2 75.1998 774C77.3331 777.867 78.6665 782.4 78.6665 785.6C78.6665 790.4 82.7998 800.267 86.9331 805.467C89.3331 808.4 94.5331 810.933 96.5331 810.267C97.4665 809.867 102.133 810.533 106.8 811.6C112.133 812.8 119.333 813.333 126.133 813.067L137.066 812.533L137.733 818.267C138.8 827.6 144.933 838.267 155.733 849.2C168.4 862.133 169.6 864.4 167.066 870.4C163.6 878.8 168.133 889.2 177.466 894.133C179.6 895.2 181.333 896.8 181.333 897.733C181.333 898.533 183.066 902.933 185.2 907.467C189.2 916 195.066 921.867 198.8 920.933C200.4 920.533 201.6 922.533 204 929.867C210.933 951.867 223.866 971.733 243.6 990.667C253.466 1000.4 256.8 1004.67 264.666 1018.67C269.866 1027.87 274.133 1035.73 274.4 1036.13C274.533 1036.67 272.533 1037.33 269.6 1037.73C254.933 1040.13 251.466 1060 264.4 1068.13C268.133 1070.53 270 1070.67 280.933 1070C291.866 1069.2 293.2 1069.33 294.4 1071.6C296 1074.53 291.733 1080.67 288.133 1080.67C285.6 1080.67 276.8 1097.6 274.4 1107.33C273.2 1112.13 270.933 1116 266.266 1120.93C258.533 1129.47 256 1135.07 256 1144.27C256 1156.53 263.066 1166.8 276.933 1174.27C281.466 1176.8 285.733 1180.8 289.733 1186C293.066 1190.4 299.066 1197.2 303.066 1201.2L310.533 1208.53L305.2 1210.8C298.8 1213.73 294 1222.8 295.466 1228.93C296.666 1233.73 299.733 1238.4 302.8 1240.13C304.4 1240.93 501.466 1241.33 854.133 1241.33C1353.6 1241.33 1403.33 1241.2 1406.27 1239.2C1410.8 1236.27 1413.6 1228.93 1412.53 1223.2C1411.6 1218 1406.13 1210.67 1403.2 1210.67C1402.13 1210.67 1401.33 1210.4 1401.33 1210C1401.33 1209.47 1405.33 1203.73 1410.13 1196.93C1414.93 1190.13 1420.27 1182.53 1421.73 1179.87C1423.33 1177.2 1426.53 1173.87 1429.07 1172.53C1431.6 1171.2 1436.13 1167.33 1439.2 1163.87C1450.4 1151.47 1450.8 1136.53 1440.53 1122.93C1430.4 1109.73 1424.13 1093.07 1424 1079.07C1424 1076.13 1422.93 1074.13 1420.4 1072.13L1416.67 1069.47L1429.73 1069.73L1442.8 1070L1447.47 1065.07C1451.07 1061.07 1452 1058.93 1452 1054.67C1452 1044.67 1445.6 1037.47 1436.4 1037.2C1426.67 1036.93 1426.8 1036.4 1443.6 1016.13C1452.27 1005.6 1462.53 992.933 1466.53 987.733C1470.53 982.667 1476.8 976.133 1480.67 973.333C1488.93 967.2 1495.07 956.4 1501.2 936.8C1503.87 928.667 1506.93 921.867 1509.2 919.333C1511.2 916.933 1514.27 911.867 1515.87 907.867C1518.27 902.133 1520 900.133 1523.87 898.4C1532.13 894.4 1536.53 883.867 1533.47 875.467C1532.4 872.8 1532.93 870.933 1537.2 864.4C1540 860.133 1543.2 855.867 1544.4 854.933C1545.6 853.867 1546.27 852.4 1545.87 851.467C1545.47 850.533 1547.6 846.8 1550.67 843.2C1556.8 835.733 1562 825.733 1563.33 818.267L1564.27 813.333H1572C1576.13 813.333 1582.93 812.667 1586.8 811.867C1590.8 811.067 1596.27 810.267 1598.93 810.133C1605.07 809.867 1609.2 806.267 1613.87 796.667C1615.73 792.667 1620.4 786.667 1624 783.2C1635.33 772.667 1638.93 757.067 1633.33 742.4C1631.87 738.667 1630.8 735.467 1631.07 735.467C1631.2 735.333 1634.93 733.467 1639.33 731.2C1657.73 721.867 1664.67 700.8 1655.47 682.4L1652.4 676L1659.2 675.867C1672.13 675.733 1683.6 668.8 1690 657.2C1693.47 650.933 1694 648.667 1694 639.333C1694 627.2 1692.13 622.533 1683.87 613.867L1678.53 608.533L1685.47 605.333C1699.33 598.8 1707.87 583.733 1706.27 568.4C1704.13 547.733 1683.87 532 1664 535.733C1660 536.533 1655.73 537.467 1654.53 538C1652.8 538.667 1653.07 537.333 1655.87 531.733C1668.93 505.2 1644.53 474.133 1615.33 480.267C1611.73 481.067 1607.07 482.4 1605.2 483.467C1601.73 485.2 1601.6 485.2 1600.8 479.733C1597.33 457.733 1576.8 443.6 1555.87 448.533C1551.87 449.467 1547.07 451.2 1545.2 452.4L1541.73 454.8L1540.8 449.067C1538.8 436.933 1529.6 425.467 1517.73 420.533C1506.93 416 1488.8 419.067 1480.53 426.8L1477.73 429.467L1476.93 422.133C1475.47 407.467 1464.67 394.4 1450.93 390.533C1437.73 386.8 1421.07 391.6 1412.93 401.333L1409.6 405.333L1408.13 398.533C1404.13 380.4 1392.13 369.6 1374.4 368.267C1364.27 367.6 1356 370 1349.6 375.333L1345.87 378.4L1342.13 371.2C1338.53 364.4 1332.53 358.4 1325.73 354.8C1317.33 350.4 1302.27 350.667 1292.93 355.333C1290.67 356.4 1288.8 357.333 1288.53 357.333C1288.4 357.333 1287.87 355.067 1287.33 352.267C1286.13 344.667 1279.87 334.533 1273.6 329.733C1261.73 320.8 1246.53 319.333 1233.73 326.133C1230.4 328 1227.6 329.2 1227.47 329.067C1227.33 328.8 1226.13 326.133 1224.67 322.933C1221.87 316.533 1212.67 307.333 1206.13 304.667C1198.27 301.333 1189.07 300.8 1180.67 303.333C1174.53 305.067 1171.33 307.067 1165.2 313.2L1157.6 320.8L1156.8 316.133C1154.8 303.867 1142.93 291.333 1130.13 287.867C1114.27 283.6 1095.6 291.733 1088.13 306.267L1085.73 310.933L1082.4 305.2C1075.87 294.267 1065.73 287.867 1053.2 286.933C1039.33 285.867 1024.4 293.867 1018 305.733L1015.47 310.4L1012 304.8C1004.13 292.533 991.333 285.867 977.467 286.933C969.733 287.467 960.4 291.333 955.2 296.133L952.4 298.8L951.6 285.733C950.667 270 948 260 941.6 246.933C929.2 222 904 201.733 877.067 195.067L868 192.933V165.2V137.333H885.333H902.667V140.933C902.667 146.4 908 154.667 913.333 157.467C918.533 160.267 928 160.8 932.4 158.533C937.467 155.867 942.533 150.4 944 146C945.333 142.133 946.133 141.6 951.6 140.933C958.133 140.267 962.933 137.333 967.2 131.467C971.333 126 971.067 114.133 966.8 108.133C963.333 103.333 954.8 98.8001 949.2 98.6668C946.267 98.6668 945.067 97.4668 942.533 92.4001C938 83.4668 933.6 80.6668 924 80.6668C918.133 80.6668 915.2 81.3334 912.4 83.4668C907.467 87.2001 902.667 94.2668 902.667 98.1334C902.667 101.333 902.667 101.333 885.333 101.333H868V84.8001V68.4001L873.6 67.4668C877.467 66.8001 880.533 65.0668 884.133 61.6001C895.067 50.5334 891.733 33.4668 877.333 27.2001C873.067 25.3334 872 24.1334 872 21.4668C871.867 15.8668 867.333 7.33343 862.667 4.0001C857.333 0.266765 847.6 -0.799902 842 1.86676ZM760.533 382.933C764 413.867 764.933 474.267 762.667 508C759.2 557.733 749.733 604.933 738 631.6L734.933 638.4L742.4 643.467C763.333 657.2 793.867 684.267 798.667 693.2C800.267 696.267 800.133 696.4 797.2 695.467C795.467 695.067 790.267 694.267 785.6 693.733C774.667 692.667 772 694.8 772 704.667C772 709.867 773.067 713.733 776.4 720.133C780.4 728 781.333 729.067 789.867 733.333C800.133 738.533 817.067 754.267 821.467 762.933C826.933 773.467 822.933 782.667 813.067 782.667C803.733 782.667 797.067 777.2 781.733 756.667C767.6 737.867 757.467 730.267 746.4 730.133C741.6 730 739.467 730.667 736.8 733.2C732 737.733 731.333 743.2 733.867 760.133C735.067 768.267 735.6 775.467 735.2 776.133C734.8 776.8 732.533 777.333 730.267 777.333C715.467 777.467 701.067 798.533 703.2 816.933C704.533 828.8 707.733 833.333 718.133 838.667C730.8 845.2 732.667 848.267 732.667 861.733C732.667 867.733 732.133 876.133 731.467 880.4C730.4 886.933 730.667 888.4 732.667 890.667C735.867 894.267 744.4 894.133 754 890.533C764.133 886.8 769.333 881.867 775.2 870.667C781.333 858.933 790.667 849.733 802.667 843.333L812.133 838.533L814.933 844.8C817.467 850.533 817.6 852.933 816.933 868.533C816.4 882.267 815.467 888.267 812.8 896.667C804.8 921.6 788 937.2 765.733 940.133C740.133 943.333 713.867 935.067 697.333 918.4C684.133 905.067 674 881.867 672.4 861.333C671.467 849.2 673.067 846.667 681.467 846.667H686.8L684.4 842.533C680.133 835.2 673.867 830.667 668 830.667C665.067 830.667 662.667 830.4 662.667 830.133C662.667 829.867 663.733 826.933 665.2 823.733C672.8 806 674.8 773.067 669.6 753.067C666.4 741.067 661.6 731.2 656.8 726.667C654 724.133 653.467 722.667 654 719.867C654.8 716.133 652.933 710.933 650.133 709.067C649.333 708.533 646.8 708 644.533 708C638.267 708 633.333 715.067 636.133 720.133C637.2 722.267 636.667 723.733 632.267 728.8C621.6 740.8 616.533 761.733 617.6 789.467C618.267 803.867 619.067 809.467 621.867 818.267C623.867 824.267 626 829.6 626.667 830C629.467 831.733 627.733 833.333 622.933 833.333C617.067 833.333 612 837.733 609.467 845.2C607.333 851.733 607.6 852.267 611.867 851.333C617.6 850.133 624.533 853.6 629.2 860.133C631.467 863.2 633.333 866.4 633.333 867.333C633.333 870.933 627.333 886.933 621.333 899.333C610.267 922.4 595.733 937.733 580.8 942.667C573.067 945.2 559.333 943.733 551.2 939.6C533.466 930.667 516.8 909.733 504.133 880.667C498.8 868.8 498.8 868.267 500.8 864.133C501.866 861.867 502.933 860 503.066 860C505.066 860 524 866 527.066 867.467C529.2 868.667 536.4 874.667 542.933 880.8C555.866 893.067 564.4 898.267 569.6 896.933C575.867 895.333 577.867 884.267 573.867 872.533C571.467 865.2 572.133 862.667 580.133 851.2C591.867 834.667 593.467 828.133 589.467 814.933C585.867 802.8 582.8 799.333 571.333 793.867C566 791.333 560 787.6 558 785.733C554.533 782.133 554.533 781.867 555.333 770C556.133 759.067 556 757.467 553.067 752.133C546.8 740.533 534.933 738.533 523.733 747.067C519.2 750.533 517.333 753.6 513.466 763.333C507.2 778.933 501.2 789.067 494.533 795.867C488.933 801.467 480.4 804.933 478.133 802.667C477.466 802 476.933 795.867 476.8 788.933C476.666 774.667 477.066 773.733 486.8 768.533C494 764.533 496.666 760.133 498.666 748.667C499.466 744.667 500.666 737.867 501.333 733.733C503.2 723.067 502.933 718.933 500.266 716.267C490.4 706.4 494 681.2 508.666 656.667C514.133 647.733 514.266 647.067 510.533 646C508.933 645.467 503.2 640.8 497.733 635.6C475.2 614.133 453.6 573.067 434.933 516C425.6 487.867 424.933 484.267 425.6 471.467C426.4 457.067 431.2 446.533 442.266 435.6C456.666 421.333 473.466 412.267 502.666 402.533C554.533 385.467 628.133 376.8 725.6 376.267L759.867 376L760.533 382.933ZM1034 377.333C1138.13 382.133 1212.53 398.133 1250.67 423.867C1260.93 430.933 1271.87 442.667 1276.27 451.733C1279.73 458.667 1280.67 462.4 1281.07 471.467C1281.73 484.133 1280.93 487.867 1272.53 514C1259.47 554 1243.2 590.133 1228.13 612.533C1219.6 625.067 1204.53 641.2 1198 644.667C1195.47 646.133 1193.33 647.6 1193.33 648.133C1193.33 648.667 1195.47 652.4 1198 656.667C1205.6 669.467 1210.93 683.733 1211.73 693.6C1212.53 705.067 1211.47 709.733 1208.13 708.667C1204.4 707.467 1199.07 710.533 1197.2 714.8C1194.93 720.4 1196.27 731.467 1200.4 740.533C1202.4 744.8 1208.27 754.267 1213.33 761.333C1224.4 776.8 1227.87 784 1228 791.867C1228 799.6 1225.2 802.667 1218.27 802.667C1210.53 802.667 1205.87 796.933 1197.47 777.2C1188.8 756.533 1183.73 748.667 1176.13 743.867C1169.2 739.333 1162.93 738.933 1158.53 742.533C1155.47 744.933 1155.33 745.867 1155.33 761.6C1155.33 782.133 1154.4 783.867 1142.4 787.333C1126.67 791.733 1118.67 804.4 1118.67 825.2C1118.67 836.533 1119.2 837.867 1129.6 848.933C1138 857.867 1138.53 864.667 1132.4 883.467C1126.8 900.933 1130.13 905.867 1145.47 902.933C1155.87 901.067 1168 895.467 1168 892.667C1168 886.133 1180.27 871.733 1191.87 864.8C1203.2 858 1204.27 857.867 1207.2 863.2C1210.27 869.067 1209.47 872.8 1202 885.867C1190.13 906.8 1166.67 930.4 1149.6 938.933C1126.53 950.4 1105.07 939.2 1088 906.8C1084.27 899.733 1079.47 891.6 1077.33 888.667C1069.47 877.733 1068.93 866.267 1076 858.133C1079.73 854 1080.4 853.733 1086.67 854.4C1094.93 855.2 1097.33 853.467 1097.33 846.4C1097.33 840.267 1092.93 835.333 1086.27 834.133C1082.27 833.333 1071.6 834.8 1064.67 836.8C1062.4 837.6 1062.53 837.2 1065.47 834.4C1070.8 829.333 1075.6 820.267 1078.93 808.667C1081.47 799.6 1082 794.8 1082 777.333C1082 749.467 1078.13 734.667 1067.47 722.933C1063.2 718.267 1062.8 717.2 1064 714.133C1068 703.467 1053.33 696.533 1047.07 706.133C1045.2 709.067 1045.07 710.267 1046.4 713.733C1047.87 717.467 1047.6 718.133 1043.2 723.067C1032.67 734.533 1027.47 753.6 1027.47 779.333C1027.47 797.333 1029.6 809.6 1034.53 820.667L1037.07 826.267L1031.47 825.733C1026.8 825.2 1025.2 825.6 1021.47 828.8C1017.33 832.267 1010.67 843.733 1010.67 847.467C1010.67 848.533 1012.67 848.8 1016.4 848.4C1021.6 847.733 1022.8 848.267 1027.2 852.133L1032.27 856.533L1031.73 870.533C1030.8 893.333 1022.53 908.933 1004.4 922.4C986.533 935.867 968.133 942.667 949.2 942.667C918.133 942.667 899.333 923.067 892.667 883.467C889.733 866.133 890 850.533 893.333 844C894.8 841.067 896.533 838.667 897.067 838.667C902.267 838.667 925.2 860.533 938.533 878C942.4 883.067 946.4 887.867 947.467 888.4C950.8 890.267 961.867 889.867 966.133 887.6C973.867 883.6 977.6 869.067 974.8 854.133C972.933 843.867 974.133 842 986.933 835.333C1001.87 827.6 1006.67 822.133 1006.67 812.667C1006.67 804.667 1003.07 798.533 991.6 787.6C976 772.533 976 772.533 976 756C976 744.533 975.467 741.333 973.467 738.133C970.267 733.333 964.267 729.333 960 729.333C950.667 729.467 935.467 741.2 927.2 754.8C921.333 764.533 912.4 772.667 901.867 777.6C890.933 782.667 884.933 783.6 880.667 780.8C878.133 779.2 877.333 777.467 877.333 773.867C877.333 763.2 883.6 755.733 904.8 741.333C926.667 726.4 934.4 715.867 932.933 703.067C932.133 695.067 927.733 690.8 919.333 689.6L912.933 688.667L924.4 677.733C936.133 666.667 954.8 653.333 967.2 647.067C970.933 645.2 974.133 643.6 974.4 643.333C974.533 643.2 972.267 637.867 969.333 631.467C949.067 588.267 940 530.4 941.733 455.333C942.533 425.2 945.867 379.733 947.467 377.067C948.4 375.6 999.733 375.733 1034 377.333ZM244 456.133C244 456.8 243.066 457.333 242 457.333C240.933 457.333 240 456.4 240 455.333C240 454.133 240.8 453.733 242 454.133C243.066 454.667 244 455.467 244 456.133ZM1466.67 455.333C1466.67 456.4 1465.73 457.333 1464.67 457.333C1461.2 457.333 1462.27 454.667 1466.4 453.467C1466.53 453.333 1466.67 454.267 1466.67 455.333ZM1458.53 494C1489.07 509.2 1522.4 528.267 1545.87 543.733C1555.47 550 1566.67 556.8 1570.67 558.667C1585.6 565.867 1592.27 579.2 1589.47 596.4C1585.47 620.4 1568.53 650.133 1538.4 686.133L1528.13 698.267L1531.73 705.467C1534.93 711.733 1535.33 714.133 1535.2 724.667C1535.07 735.867 1531.07 756.933 1527.87 762.933C1527.07 764.533 1525.07 765.333 1522.27 765.333C1517.07 765.333 1512.67 768.133 1510 773.333C1506.93 779.333 1507.6 785.867 1512 794.267C1515.6 800.8 1516 802.933 1515.87 812.533C1515.87 818.533 1514.93 825.467 1514 828L1512.27 832.667L1512.13 825.867C1511.87 813.467 1507.33 804.533 1499.2 800.667C1494.8 798.533 1494.13 798.533 1492.27 800.533C1491.07 801.733 1490.13 804.8 1490.13 807.6C1490.13 810.4 1489.33 813.333 1488.4 814C1487.33 814.8 1485.73 817.733 1484.8 820.667C1482.4 827.733 1477.87 830.133 1464 832C1452.8 833.333 1452.53 833.467 1446.4 840.133C1438.4 848.667 1436.4 854.933 1438.67 865.6C1440.93 876.133 1439.6 885.6 1433.33 904.133C1427.73 920.133 1426.93 926.4 1429.6 929.067C1433.87 933.333 1440.27 930 1456 915.467C1467.73 904.667 1474.67 900.933 1474.67 905.333C1474.67 909.333 1468.13 928.8 1463.47 939.2C1451.2 965.6 1434.67 976.133 1418.67 967.733C1406.27 961.067 1400.4 944.267 1401.6 918.933C1402.4 902 1404.67 897.467 1413.73 894.8C1419.2 893.067 1420 892.4 1420 889.2C1420 885.2 1416.93 881.333 1413.87 881.333C1411.2 881.333 1411.47 880.8 1416.93 873.733C1428.4 858.8 1433.87 840.133 1433.07 818.533C1432.67 806.4 1432.13 803.6 1429.07 797.6C1425.73 791.2 1425.6 790.4 1427.47 786.8C1430.8 780.267 1426.27 773.333 1418.67 773.333C1414.93 773.333 1409.33 779.067 1409.33 783.067C1409.33 785.333 1408 786.667 1404 788.533C1393.07 793.333 1380.93 812.4 1376.53 831.733L1374.4 841.333L1369.07 834.933C1363.6 828.4 1356 814.267 1356 810.533C1356 809.333 1357.2 805.733 1358.67 802.533C1363.87 791.067 1361.07 776.667 1352.93 772.533C1344.93 768.267 1331.33 775.6 1318.67 790.8C1310.13 800.933 1306.27 804.267 1297.33 808.8C1287.87 813.467 1279.47 814.533 1276 811.333C1272.4 808.133 1272.67 806.133 1277.47 797.467C1283.33 786.933 1290.27 780 1295.07 780C1297.07 780 1300.4 779.2 1302.53 778.133C1307.87 775.333 1328.4 753.333 1331.2 747.333C1334.53 740.4 1333.33 732.4 1328.53 728.267C1325.2 725.333 1325.07 724.933 1326.8 721.733C1327.87 719.733 1332.4 714.4 1336.93 709.867C1344.53 702.267 1352 697.733 1365.33 692.4C1368.4 691.2 1369.73 687.733 1377.87 662.533C1428.13 503.867 1432.13 491.067 1431.73 486.267C1431.47 483.6 1431.73 481.333 1432.27 481.333C1432.93 481.333 1444.67 487.067 1458.53 494ZM274.666 487.067C274.666 489.467 284.8 523.467 297.2 562.667C341.333 702.133 337.466 690.8 341.333 692.4C359.466 699.6 373.866 710.933 380.933 723.6L384 728.933L378.266 730.4C375.2 731.2 371.066 732.133 369.066 732.667C364.533 733.6 358.666 741.867 358.666 747.2C358.666 760 372 772.8 404.533 791.333C416.666 798.267 428.666 811.867 425.466 815.067C423.733 816.8 410.266 813.867 403.066 810.133C398.933 808.133 392.266 802.267 384.4 793.733C370.8 778.933 361.733 772.933 352.533 772.8C348.266 772.667 346 773.467 343.466 775.867C339.333 779.733 339.2 781.333 342.666 790.4C346.266 799.867 346 809.6 341.866 823.6C337.2 839.2 336.666 855.333 340.8 860.933C343.333 864.4 345.733 865.333 357.066 867.467C362.133 868.4 369.733 876.533 375.2 886.933C387.466 910 394 916.533 403.6 915.733C410 915.2 411.466 912.267 413.466 897.067C414.266 891.067 415.466 883.867 416.266 881.333C417.733 876.533 422.133 870.667 424.4 870.667C425.066 870.667 428 873.067 430.933 876L436.133 881.2L434.8 900.267C432.533 930 427.333 944.8 416.8 951.867C412.533 954.667 410 955.333 403.2 955.2C390 955.067 380.533 949.6 361.333 931.2C343.866 914.267 336 903.867 336 897.467C336 892.267 339.6 882.933 343.066 878.933C345.066 876.8 345.466 875.6 344.4 874.533C342.666 872.8 334.133 872.4 328.4 873.733L324.266 874.8L326.133 868.533C331.466 850.933 324.8 817.867 312.266 799.733C306.666 791.733 297.333 783.333 291.733 781.467C287.733 780.133 287.2 779.467 287.6 776.667C288.4 772.667 282.8 766.667 278.266 766.667C274 766.667 269.733 770.4 268.666 774.8C268 777.333 268.666 779.333 270.933 782L274.133 785.6L270.666 792.533C267.6 798.667 267.333 800.933 267.333 815.333C267.333 828.4 268 833.2 270.4 841.333C274.933 855.733 282.266 868.933 290 876.8L296.8 883.6L289.066 885.2C284.8 886 281.333 887.333 281.333 888.133C281.333 888.933 282.4 889.333 283.733 889.2C284.933 889.067 287.066 889.067 288.266 889.2C290.666 889.333 306 902.933 308 906.533C309.333 909.2 307.466 928 304.533 940C301.466 952.4 296.666 961.733 290.666 967.2C286 971.467 284.533 972 278.4 972C268.933 972 261.733 968.133 252.8 958.533C242.533 947.467 232.8 930.4 224 907.867L221.333 901.333H225.6C228.933 901.333 231.866 903.467 242.533 913.733C249.6 920.667 256.8 927.2 258.666 928.4C265.2 932.933 270.666 930.133 270.666 922.267C270.666 920.533 268.8 912.933 266.4 905.2C262 890.533 260.933 875.867 263.333 860.267C264.533 851.867 262.133 844.533 255.6 836.933C251.733 832.4 250.4 831.867 240.533 830.133C229.466 828.267 221.6 825.067 220.666 822.267C220.4 821.333 219.866 819.067 219.466 817.067C219.066 815.067 217.733 812.667 216.8 811.6C215.733 810.533 214.666 806.8 214.4 803.2C214 797.333 213.6 796.667 210.666 796.267C205.6 795.733 198.4 801.2 194.8 808.4C192.133 813.733 191.6 816.933 191.733 826.133C191.733 832.267 191.466 837.333 191.2 837.333C190.933 837.333 189.333 834.8 187.733 831.6C185.066 826.8 184.666 824 184.666 812.667C184.666 800.933 185.2 798.4 188.4 791.467C190.4 787.2 192 783.067 192 782.4C192 779.467 183.333 769.067 179.333 767.067C175.066 765.067 174.8 764.4 172.933 753.467C168.533 728.267 169.066 715.467 175.333 704.267L178.533 698.533L166.133 683.467C136.533 647.6 121.066 620 117.2 596.4C114.266 578.667 120.933 566.133 137.333 558.133C142.133 555.733 150.533 550.8 156 547.2C164.533 541.467 177.333 533.733 200.666 520C208.266 515.6 272.4 482.8 273.733 482.667C274.266 482.667 274.666 484.667 274.666 487.067ZM647.2 846C646.533 847.6 645.867 847.733 644.533 846.533C642 844.533 642.133 844 645.333 844C647.067 844 647.733 844.667 647.2 846ZM1375.6 870.133C1374 871.733 1372.27 869.2 1373.07 866.4L1373.73 863.467L1375.07 866.4C1375.87 868 1376 869.733 1375.6 870.133ZM1297.2 898.667C1301.47 907.067 1306 916.933 1307.33 920.533C1311.2 930.8 1320.27 934.667 1329.33 930C1336 926.533 1341.33 912.133 1341.33 898C1341.33 893.733 1342.27 891.2 1344.67 888.267C1348.67 883.6 1356.27 880 1357.07 882.4C1357.33 883.333 1359.6 884 1362.13 884C1367.07 884 1369.73 886.933 1371.87 894.4C1372.93 897.867 1372.4 899.6 1368.27 906.267C1349.87 936.133 1327.07 955.2 1308 956.933C1298.4 957.867 1294.67 956.933 1289.33 952.533C1279.47 944.133 1273.33 922.4 1273.33 894.8C1273.33 879.333 1273.6 878 1276.4 874.933L1279.33 871.733L1284.4 877.6C1287.2 880.667 1292.93 890.267 1297.2 898.667Z" fill="#DB6910"/>
</svg>
