<svg width="234" height="552" viewBox="0 0 234 552" fill="none" xmlns="http://www.w3.org/2000/svg">
<path d="M5 15V439.25C5 442.032 6.15902 444.688 8.19855 446.581L112.701 543.537C116.604 547.159 122.661 547.087 126.476 543.374L225.974 446.558C227.909 444.675 229 442.09 229 439.391V15C229 9.47715 224.523 5 219 5H15C9.47715 5 5 9.47715 5 15Z" fill="white" fill-opacity="0.4" stroke="#757575" stroke-width="10"/>
<path d="M148.369 86.2881H84.6712C78.5372 86.2881 73.849 91.7598 74.7895 97.8213L107.005 305.452C108.759 316.76 125.058 316.732 126.773 305.417L158.256 97.7873C159.174 91.7363 154.49 86.2881 148.369 86.2881Z" stroke="#757575" stroke-width="20"/>
<ellipse cx="118.5" cy="371.011" rx="22.5" ry="23.0114" fill="#757575"/>
</svg>
