<svg width="47" height="14" viewBox="0 0 47 14" fill="none" xmlns="http://www.w3.org/2000/svg">
<path d="M3.384 9.672C2.976 9.672 2.608 9.56 2.28 9.336C1.96 9.112 1.708 8.824 1.524 8.472C1.34 8.12 1.248 7.748 1.248 7.356C1.248 6.908 1.284 6.464 1.356 6.024C1.308 6.08 1.244 6.176 1.164 6.312C1.092 6.448 1.016 6.516 0.936 6.516C0.88 6.516 0.828 6.5 0.78 6.468C0.74 6.428 0.72 6.38 0.72 6.324C0.72 6.236 0.772 6.128 0.876 6C0.98 5.872 1.092 5.748 1.212 5.628C1.34 5.508 1.436 5.424 1.5 5.376C1.66 4.76 1.908 4.164 2.244 3.588C2.58 3.012 2.988 2.5 3.468 2.052C3.948 1.596 4.484 1.236 5.076 0.972C5.676 0.708 6.312 0.576 6.984 0.576C7.16 0.576 7.352 0.608 7.56 0.672C7.768 0.736 7.944 0.835999 8.088 0.972C8.24 1.108 8.316 1.284 8.316 1.5C8.316 1.548 8.304 1.64 8.28 1.776C8.264 1.912 8.236 2.06 8.196 2.22C8.164 2.38 8.12 2.516 8.064 2.628C8.008 2.74 7.94 2.796 7.86 2.796C7.828 2.796 7.804 2.776 7.788 2.736C7.78 2.688 7.776 2.652 7.776 2.628C7.776 2.54 7.824 2.408 7.92 2.232C8.024 2.048 8.076 1.788 8.076 1.452C8.076 1.3 8.008 1.188 7.872 1.116C7.736 1.044 7.58 0.996 7.404 0.972C7.236 0.947999 7.096 0.935999 6.984 0.935999C6.408 0.935999 5.86 1.048 5.34 1.272C4.828 1.496 4.36 1.8 3.936 2.184C3.52 2.568 3.152 3 2.832 3.48C2.52 3.96 2.272 4.456 2.088 4.968C2.528 4.712 3.016 4.48 3.552 4.272C4.088 4.064 4.632 3.9 5.184 3.78C5.744 3.66 6.28 3.6 6.792 3.6C6.832 3.6 6.92 3.608 7.056 3.624C7.2 3.632 7.352 3.648 7.512 3.672C7.68 3.696 7.824 3.728 7.944 3.768C8.064 3.808 8.124 3.86 8.124 3.924C8.124 3.956 8.104 3.98 8.064 3.996C8.032 4.004 8.008 4.008 7.992 4.008C7.88 4.008 7.744 3.976 7.584 3.912C7.432 3.848 7.268 3.816 7.092 3.816C6.748 3.816 6.34 3.868 5.868 3.972C5.396 4.068 4.908 4.2 4.404 4.368C3.908 4.528 3.44 4.708 3 4.908C2.56 5.108 2.2 5.312 1.92 5.52C1.84 5.816 1.78 6.12 1.74 6.432C1.7 6.736 1.68 7.044 1.68 7.356C1.68 7.676 1.748 7.988 1.884 8.292C2.028 8.588 2.228 8.832 2.484 9.024C2.74 9.216 3.04 9.312 3.384 9.312C3.76 9.312 4.152 9.248 4.56 9.12C4.976 9 5.384 8.836 5.784 8.628C6.192 8.412 6.564 8.172 6.9 7.908C7.244 7.636 7.528 7.352 7.752 7.056C7.768 7.04 7.784 7.02 7.8 6.996C7.824 6.972 7.848 6.96 7.872 6.96C7.912 6.96 7.932 6.984 7.932 7.032C7.932 7.064 7.924 7.096 7.908 7.128C7.9 7.16 7.888 7.184 7.872 7.2C7.68 7.504 7.408 7.804 7.056 8.1C6.704 8.396 6.312 8.664 5.88 8.904C5.448 9.136 5.012 9.32 4.572 9.456C4.14 9.6 3.744 9.672 3.384 9.672ZM8.80819 9.048C8.75219 9.048 8.70819 9.028 8.67619 8.988C8.65219 8.94 8.64019 8.888 8.64019 8.832C8.64019 8.384 8.66419 7.936 8.71219 7.488C8.76819 7.032 8.79619 6.58 8.79619 6.132C8.79619 6.084 8.79219 5.992 8.78419 5.856C8.78419 5.712 8.77619 5.56 8.76019 5.4C8.75219 5.232 8.73619 5.084 8.71219 4.956C8.69619 4.82 8.67219 4.736 8.64019 4.704C8.60819 4.68 8.57619 4.652 8.54419 4.62C8.52019 4.588 8.50819 4.548 8.50819 4.5C8.50819 4.452 8.52819 4.416 8.56819 4.392C8.61619 4.36 8.66419 4.344 8.71219 4.344C8.84819 4.344 8.94419 4.408 9.00019 4.536C9.06419 4.656 9.10419 4.804 9.12019 4.98C9.14419 5.156 9.15619 5.324 9.15619 5.484C9.15619 6.236 9.13219 6.992 9.08419 7.752C9.11619 7.664 9.18019 7.508 9.27619 7.284C9.37219 7.06 9.48819 6.808 9.62419 6.528C9.76019 6.248 9.90019 5.98 10.0442 5.724C10.1962 5.46 10.3362 5.244 10.4642 5.076C10.5922 4.9 10.6962 4.812 10.7762 4.812C10.8882 4.812 10.9682 4.884 11.0162 5.028C11.0722 5.164 11.1002 5.276 11.1002 5.364C11.1002 5.732 11.0802 6.1 11.0402 6.468C11.0082 6.836 10.9922 7.208 10.9922 7.584C10.9922 7.632 10.9962 7.724 11.0042 7.86C11.0202 7.988 11.0442 8.112 11.0762 8.232C11.1162 8.344 11.1762 8.4 11.2562 8.4C11.3202 8.4 11.4042 8.328 11.5082 8.184C11.6122 8.04 11.7202 7.872 11.8322 7.68C11.9442 7.48 12.0442 7.292 12.1322 7.116C12.2202 6.94 12.2802 6.816 12.3122 6.744C12.3202 6.728 12.3282 6.712 12.3362 6.696C12.3442 6.672 12.3562 6.66 12.3722 6.66C12.4122 6.66 12.4362 6.692 12.4442 6.756C12.4522 6.812 12.4562 6.848 12.4562 6.864C12.4562 6.944 12.4122 7.084 12.3242 7.284C12.2362 7.484 12.1242 7.696 11.9882 7.92C11.8602 8.144 11.7242 8.336 11.5802 8.496C11.4442 8.656 11.3202 8.736 11.2082 8.736C11.0482 8.736 10.9282 8.672 10.8482 8.544C10.7762 8.416 10.7282 8.272 10.7042 8.112C10.6802 7.944 10.6682 7.804 10.6682 7.692C10.6682 7.428 10.6802 7.164 10.7042 6.9C10.7362 6.636 10.7522 6.372 10.7522 6.108C10.7522 6.084 10.7482 6.024 10.7402 5.928C10.7402 5.832 10.7362 5.74 10.7282 5.652C10.7202 5.564 10.7002 5.52 10.6682 5.52C10.5882 5.52 10.4842 5.62 10.3562 5.82C10.2362 6.02 10.1042 6.272 9.96019 6.576C9.82419 6.88 9.68819 7.196 9.55219 7.524C9.41619 7.844 9.29619 8.132 9.19219 8.388C9.09619 8.644 9.02819 8.816 8.98819 8.904C8.97219 8.936 8.94819 8.968 8.91619 9C8.89219 9.032 8.85619 9.048 8.80819 9.048ZM12.3258 13.524C12.1498 13.524 12.0178 13.472 11.9298 13.368C11.8498 13.272 11.7938 13.152 11.7618 13.008C11.7378 12.864 11.7258 12.724 11.7258 12.588C11.7258 12.284 11.7738 11.944 11.8698 11.568C11.9658 11.192 12.0978 10.808 12.2658 10.416C12.4418 10.024 12.6418 9.652 12.8658 9.3C13.0978 8.948 13.3458 8.636 13.6098 8.364C13.8738 8.092 14.1458 7.892 14.4258 7.764L14.4378 7.296C14.4378 7.208 14.4338 7.06 14.4258 6.852C14.4258 6.636 14.4178 6.404 14.4018 6.156C14.3858 5.908 14.3658 5.688 14.3418 5.496C14.3178 5.304 14.2938 5.188 14.2698 5.148C14.1978 5.26 14.1098 5.456 14.0058 5.736C13.9018 6.016 13.7858 6.328 13.6578 6.672C13.5298 7.008 13.3938 7.336 13.2498 7.656C13.1138 7.976 12.9698 8.24 12.8178 8.448C12.6738 8.656 12.5298 8.76 12.3858 8.76C12.2178 8.76 12.0898 8.708 12.0018 8.604C11.9218 8.5 11.8658 8.376 11.8338 8.232C11.8098 8.08 11.7978 7.94 11.7978 7.812C11.7978 7.66 11.8338 7.432 11.9058 7.128C11.9778 6.824 12.0738 6.496 12.1938 6.144C12.3218 5.784 12.4658 5.444 12.6258 5.124C12.7938 4.796 12.9698 4.528 13.1538 4.32C13.3378 4.112 13.5258 4.008 13.7178 4.008C13.8298 4.008 13.9218 4.048 13.9938 4.128C14.0738 4.208 14.1338 4.296 14.1738 4.392C14.1898 4.368 14.2178 4.356 14.2578 4.356C14.3778 4.356 14.4738 4.46 14.5458 4.668C14.6178 4.876 14.6698 5.136 14.7018 5.448C14.7418 5.752 14.7698 6.068 14.7858 6.396C14.8018 6.724 14.8098 7.008 14.8098 7.248C14.8098 7.344 14.8058 7.432 14.7978 7.512C14.7978 7.584 14.7978 7.64 14.7978 7.68H14.8338C14.8898 7.68 14.9418 7.696 14.9898 7.728C15.0458 7.76 15.0738 7.808 15.0738 7.872C15.0738 7.992 15.0098 8.052 14.8818 8.052C14.8338 8.052 14.7978 8.048 14.7738 8.04C14.7018 8.72 14.5898 9.4 14.4378 10.08C14.2938 10.768 14.0698 11.424 13.7658 12.048C13.7178 12.152 13.6378 12.284 13.5258 12.444C13.4218 12.612 13.3018 12.776 13.1658 12.936C13.0298 13.104 12.8858 13.244 12.7338 13.356C12.5898 13.468 12.4538 13.524 12.3258 13.524ZM12.3858 8.364C12.4898 8.364 12.6018 8.268 12.7218 8.076C12.8498 7.876 12.9778 7.628 13.1058 7.332C13.2338 7.036 13.3538 6.728 13.4658 6.408C13.5778 6.08 13.6738 5.788 13.7538 5.532C13.8418 5.268 13.9018 5.084 13.9338 4.98C13.9178 4.948 13.9058 4.92 13.8978 4.896C13.8978 4.872 13.8978 4.848 13.8978 4.824C13.8978 4.792 13.8978 4.744 13.8978 4.68C13.8978 4.608 13.8858 4.544 13.8618 4.488C13.8378 4.424 13.7898 4.392 13.7178 4.392C13.5738 4.392 13.4258 4.492 13.2738 4.692C13.1298 4.892 12.9898 5.144 12.8538 5.448C12.7258 5.752 12.6098 6.072 12.5058 6.408C12.4098 6.736 12.3298 7.036 12.2658 7.308C12.2098 7.58 12.1818 7.776 12.1818 7.896C12.1818 7.968 12.1898 8.064 12.2058 8.184C12.2218 8.304 12.2818 8.364 12.3858 8.364ZM12.3258 13.164C12.4218 13.164 12.5258 13.112 12.6378 13.008C12.7578 12.912 12.8698 12.788 12.9738 12.636C13.0858 12.492 13.1818 12.348 13.2618 12.204C13.3498 12.068 13.4138 11.96 13.4538 11.88C13.7498 11.304 13.9698 10.696 14.1138 10.056C14.2578 9.424 14.3578 8.788 14.4138 8.148C14.1898 8.268 13.9658 8.46 13.7418 8.724C13.5258 8.98 13.3178 9.276 13.1178 9.612C12.9178 9.948 12.7378 10.296 12.5778 10.656C12.4258 11.024 12.3058 11.372 12.2178 11.7C12.1298 12.036 12.0858 12.328 12.0858 12.576C12.0858 12.624 12.0898 12.692 12.0978 12.78C12.1058 12.876 12.1258 12.964 12.1578 13.044C12.1978 13.124 12.2538 13.164 12.3258 13.164ZM16.7006 9.156C16.4846 9.156 16.3126 9.072 16.1846 8.904C16.0566 8.728 15.9646 8.516 15.9086 8.268C15.8526 8.012 15.8166 7.76 15.8006 7.512C15.7846 7.264 15.7766 7.068 15.7766 6.924C15.7766 6.116 15.8686 5.3 16.0526 4.476C16.1406 4.092 16.2246 3.756 16.3046 3.468C16.3926 3.18 16.4846 2.912 16.5806 2.664C16.6766 2.416 16.7846 2.16 16.9046 1.896C17.0326 1.632 17.1766 1.332 17.3366 0.995999H17.3006C17.2526 0.995999 17.2126 0.975999 17.1806 0.935999C17.1566 0.888 17.1446 0.844 17.1446 0.804C17.1446 0.707999 17.2046 0.628 17.3246 0.564C17.4446 0.5 17.5446 0.468 17.6246 0.468C17.7926 0.468 17.9206 0.544 18.0086 0.696C18.0966 0.84 18.1566 1.008 18.1886 1.2C18.2206 1.384 18.2366 1.54 18.2366 1.668C18.2366 1.828 18.2246 1.992 18.2006 2.16C18.1446 2.56 18.0446 2.988 17.9006 3.444C17.7646 3.9 17.5886 4.336 17.3726 4.752C17.1646 5.16 16.9086 5.512 16.6046 5.808C16.5486 5.856 16.4766 5.916 16.3886 5.988C16.3086 6.052 16.2246 6.084 16.1366 6.084C16.1126 6.356 16.1006 6.636 16.1006 6.924C16.1006 7.028 16.1046 7.184 16.1126 7.392C16.1286 7.592 16.1566 7.804 16.1966 8.028C16.2446 8.244 16.3126 8.432 16.4006 8.592C16.4966 8.744 16.6206 8.82 16.7726 8.82C16.9406 8.82 17.1006 8.732 17.2526 8.556C17.4126 8.372 17.5606 8.148 17.6966 7.884C17.8326 7.612 17.9566 7.344 18.0686 7.08C18.1806 6.808 18.2726 6.584 18.3446 6.408C18.4246 6.224 18.4806 6.128 18.5126 6.12C18.5366 6.152 18.5486 6.2 18.5486 6.264C18.5486 6.4 18.5126 6.584 18.4406 6.816C18.3686 7.048 18.2686 7.3 18.1406 7.572C18.0206 7.836 17.8806 8.092 17.7206 8.34C17.5606 8.58 17.3926 8.776 17.2166 8.928C17.0486 9.08 16.8766 9.156 16.7006 9.156ZM16.1606 5.844C16.3446 5.796 16.5206 5.644 16.6886 5.388C16.8646 5.132 17.0246 4.82 17.1686 4.452C17.3126 4.084 17.4366 3.708 17.5406 3.324C17.6526 2.932 17.7366 2.576 17.7926 2.256C17.8566 1.928 17.8886 1.684 17.8886 1.524C17.8886 1.444 17.8806 1.344 17.8646 1.224C17.8486 1.096 17.7886 1.016 17.6846 0.983999C17.6766 1.016 17.6566 1.04 17.6246 1.056C17.6006 1.072 17.5806 1.088 17.5646 1.104C17.4686 1.208 17.3606 1.408 17.2406 1.704C17.1206 2 17.0006 2.348 16.8806 2.748C16.7686 3.148 16.6606 3.552 16.5566 3.96C16.4526 4.368 16.3646 4.744 16.2926 5.088C16.2206 5.424 16.1766 5.676 16.1606 5.844ZM19.1836 4.284C19.1276 4.284 19.0756 4.272 19.0276 4.248C18.9796 4.216 18.9556 4.172 18.9556 4.116C18.9556 4.052 18.9836 3.956 19.0396 3.828C19.0956 3.692 19.1676 3.556 19.2556 3.42C19.3436 3.284 19.4356 3.168 19.5316 3.072C19.6356 2.976 19.7276 2.928 19.8076 2.928C19.8716 2.928 19.9036 2.968 19.9036 3.048C19.9036 3.144 19.8516 3.22 19.7476 3.276C19.6836 3.316 19.6276 3.392 19.5796 3.504C19.5396 3.616 19.5036 3.732 19.4716 3.852C19.4476 3.972 19.4236 4.068 19.3996 4.14C19.3756 4.236 19.3036 4.284 19.1836 4.284ZM18.9436 8.88C18.7596 8.88 18.6236 8.804 18.5356 8.652C18.4476 8.492 18.3916 8.312 18.3676 8.112C18.3436 7.904 18.3316 7.736 18.3316 7.608C18.3316 7.528 18.3396 7.38 18.3556 7.164C18.3796 6.948 18.4076 6.708 18.4396 6.444C18.4796 6.172 18.5236 5.908 18.5716 5.652C18.6276 5.396 18.6916 5.184 18.7636 5.016C18.8356 4.848 18.9116 4.764 18.9916 4.764C19.0556 4.764 19.1116 4.784 19.1596 4.824C19.2076 4.864 19.2316 4.916 19.2316 4.98C19.2316 5.076 19.2036 5.228 19.1476 5.436C19.0916 5.644 19.0236 5.88 18.9436 6.144C18.8716 6.408 18.8036 6.676 18.7396 6.948C18.6836 7.212 18.6556 7.452 18.6556 7.668C18.6556 7.724 18.6596 7.82 18.6676 7.956C18.6836 8.092 18.7116 8.22 18.7516 8.34C18.7916 8.452 18.8556 8.508 18.9436 8.508C19.0636 8.508 19.1956 8.42 19.3396 8.244C19.4836 8.068 19.6276 7.852 19.7716 7.596C19.9236 7.332 20.0636 7.072 20.1916 6.816C20.3196 6.552 20.4276 6.332 20.5156 6.156C20.6036 5.98 20.6636 5.892 20.6956 5.892C20.7356 5.892 20.7596 5.908 20.7676 5.94C20.7836 5.964 20.7916 5.992 20.7916 6.024C20.7916 6.128 20.7476 6.296 20.6596 6.528C20.5716 6.752 20.4556 7 20.3116 7.272C20.1676 7.536 20.0116 7.792 19.8436 8.04C19.6756 8.28 19.5116 8.48 19.3516 8.64C19.1916 8.8 19.0556 8.88 18.9436 8.88ZM20.9299 9.036C20.7859 9.036 20.7139 8.964 20.7139 8.82C20.7139 8.684 20.7619 8.532 20.8579 8.364C20.9619 8.188 21.0859 8.012 21.2299 7.836C21.3739 7.652 21.5179 7.484 21.6619 7.332C21.8139 7.18 21.9379 7.056 22.0339 6.96C21.9219 6.904 21.7819 6.856 21.6139 6.816C21.4539 6.768 21.2899 6.716 21.1219 6.66C20.9619 6.596 20.8259 6.516 20.7139 6.42C20.6099 6.316 20.5579 6.18 20.5579 6.012C20.5579 5.836 20.6219 5.636 20.7499 5.412C20.8859 5.188 21.0579 4.972 21.2659 4.764C21.4739 4.548 21.6859 4.372 21.9019 4.236C22.1179 4.092 22.3099 4.02 22.4779 4.02C22.5819 4.02 22.6819 4.048 22.7779 4.104C22.8819 4.152 22.9339 4.236 22.9339 4.356C22.9339 4.388 22.9259 4.432 22.9099 4.488C22.8939 4.544 22.8659 4.572 22.8259 4.572C22.7699 4.572 22.7219 4.544 22.6819 4.488C22.6499 4.424 22.6099 4.392 22.5619 4.392C22.4259 4.392 22.2619 4.448 22.0699 4.56C21.8859 4.672 21.7059 4.816 21.5299 4.992C21.3539 5.16 21.2059 5.336 21.0859 5.52C20.9739 5.704 20.9179 5.868 20.9179 6.012C20.9179 6.108 20.9739 6.192 21.0859 6.264C21.1979 6.336 21.3299 6.396 21.4819 6.444C21.6419 6.492 21.7979 6.54 21.9499 6.588C22.1019 6.628 22.2139 6.672 22.2859 6.72C22.3259 6.68 22.3939 6.616 22.4899 6.528C22.5859 6.44 22.6939 6.344 22.8139 6.24C22.9339 6.136 23.0419 6.048 23.1379 5.976C23.2419 5.904 23.3139 5.868 23.3539 5.868C23.3859 5.868 23.4019 5.884 23.4019 5.916C23.4019 5.956 23.3619 6.024 23.2819 6.12C23.2099 6.208 23.1179 6.304 23.0059 6.408C22.9019 6.512 22.8019 6.612 22.7059 6.708C22.6099 6.796 22.5419 6.86 22.5019 6.9C22.5739 7.02 22.6099 7.148 22.6099 7.284C22.6099 7.42 22.5499 7.588 22.4299 7.788C22.3099 7.98 22.1579 8.172 21.9739 8.364C21.7979 8.556 21.6139 8.716 21.4219 8.844C21.2299 8.972 21.0659 9.036 20.9299 9.036ZM21.3859 8.424C21.4579 8.424 21.5419 8.384 21.6379 8.304C21.7419 8.224 21.8419 8.124 21.9379 8.004C22.0339 7.884 22.1139 7.768 22.1779 7.656C22.2499 7.536 22.2859 7.44 22.2859 7.368C22.2859 7.288 22.2699 7.228 22.2379 7.188C22.1899 7.236 22.1139 7.312 22.0099 7.416C21.9139 7.52 21.8099 7.636 21.6979 7.764C21.5939 7.884 21.5019 8 21.4219 8.112C21.3499 8.216 21.3139 8.296 21.3139 8.352C21.3139 8.4 21.3379 8.424 21.3859 8.424ZM23.847 8.916C23.751 8.916 23.679 8.848 23.631 8.712C23.583 8.568 23.547 8.4 23.523 8.208C23.499 8.008 23.483 7.824 23.475 7.656C23.475 7.48 23.475 7.364 23.475 7.308C23.475 6.82 23.495 6.3 23.535 5.748C23.583 5.188 23.655 4.624 23.751 4.056C23.855 3.48 23.991 2.932 24.159 2.412C24.327 1.884 24.535 1.408 24.783 0.983999C24.839 0.888 24.923 0.84 25.035 0.84C25.083 0.84 25.127 0.856 25.167 0.887999C25.207 0.911999 25.227 0.952 25.227 1.008C25.227 1.056 25.211 1.112 25.179 1.176C24.947 1.712 24.727 2.236 24.519 2.748C24.311 3.252 24.143 3.792 24.015 4.368C23.847 5.136 23.763 5.916 23.763 6.708C23.763 7.092 23.787 7.472 23.835 7.848C23.875 7.72 23.955 7.524 24.075 7.26C24.195 6.996 24.335 6.704 24.495 6.384C24.663 6.064 24.839 5.756 25.023 5.46C25.215 5.164 25.399 4.924 25.575 4.74C25.751 4.548 25.907 4.452 26.043 4.452C26.187 4.452 26.279 4.524 26.319 4.668C26.367 4.804 26.391 4.928 26.391 5.04C26.391 5.36 26.367 5.68 26.319 6C26.271 6.32 26.247 6.644 26.247 6.972C26.247 7.004 26.251 7.092 26.259 7.236C26.267 7.372 26.283 7.504 26.307 7.632C26.339 7.76 26.379 7.824 26.427 7.824C26.499 7.824 26.571 7.78 26.643 7.692C26.715 7.596 26.779 7.492 26.835 7.38C26.899 7.26 26.955 7.156 27.003 7.068C27.051 6.972 27.087 6.924 27.111 6.924C27.135 6.924 27.151 6.944 27.159 6.984C27.167 7.016 27.171 7.04 27.171 7.056C27.171 7.16 27.131 7.304 27.051 7.488C26.979 7.664 26.883 7.828 26.763 7.98C26.643 8.124 26.523 8.196 26.403 8.196C26.291 8.196 26.199 8.148 26.127 8.052C26.063 7.956 26.015 7.84 25.983 7.704C25.951 7.568 25.927 7.436 25.911 7.308C25.903 7.18 25.899 7.08 25.899 7.008C25.899 6.72 25.911 6.432 25.935 6.144C25.967 5.856 25.983 5.568 25.983 5.28V5.184C25.983 5.136 25.979 5.092 25.971 5.052C25.963 5.004 25.943 4.98 25.911 4.98C25.863 4.98 25.795 5.036 25.707 5.148C25.619 5.252 25.559 5.324 25.527 5.364C25.311 5.636 25.103 5.96 24.903 6.336C24.711 6.712 24.543 7.1 24.399 7.5C24.255 7.892 24.151 8.26 24.087 8.604C24.079 8.668 24.055 8.736 24.015 8.808C23.983 8.88 23.927 8.916 23.847 8.916ZM31.4565 8.796C31.2805 8.796 31.1405 8.736 31.0365 8.616C30.9325 8.488 30.8525 8.332 30.7965 8.148C30.7485 7.956 30.7165 7.768 30.7005 7.584C30.6845 7.392 30.6765 7.236 30.6765 7.116C30.6765 6.684 30.6925 6.248 30.7245 5.808C30.7645 5.368 30.8045 4.932 30.8445 4.5C30.7085 4.556 30.5765 4.62 30.4485 4.692C30.3285 4.764 30.2165 4.856 30.1125 4.968C30.0965 4.984 30.0765 5 30.0525 5.016C30.0365 5.032 30.0125 5.04 29.9805 5.04C29.9245 5.04 29.8685 5.012 29.8125 4.956C29.7645 4.9 29.7405 4.844 29.7405 4.788C29.7405 4.716 29.7885 4.644 29.8845 4.572C29.9805 4.492 30.0965 4.42 30.2325 4.356C30.3765 4.284 30.5085 4.224 30.6285 4.176C30.7565 4.128 30.8445 4.096 30.8925 4.08C30.9005 4.016 30.9165 3.896 30.9405 3.72C30.9725 3.536 31.0085 3.332 31.0485 3.108C31.0885 2.876 31.1325 2.656 31.1805 2.448C31.2365 2.232 31.2925 2.056 31.3485 1.92C31.4045 1.776 31.4605 1.704 31.5165 1.704C31.5725 1.704 31.6285 1.724 31.6845 1.764C31.7405 1.804 31.7685 1.852 31.7685 1.908C31.7685 1.932 31.7485 2.032 31.7085 2.208C31.6685 2.384 31.6165 2.592 31.5525 2.832C31.4965 3.064 31.4445 3.284 31.3965 3.492C31.3565 3.7 31.3285 3.844 31.3125 3.924C31.6645 3.82 32.0005 3.736 32.3205 3.672C32.6485 3.608 32.9925 3.576 33.3525 3.576C33.3845 3.576 33.4445 3.576 33.5325 3.576C33.6205 3.576 33.7045 3.58 33.7845 3.588C33.8725 3.596 33.9165 3.612 33.9165 3.636C33.8365 3.668 33.7485 3.692 33.6525 3.708C33.5645 3.724 33.4765 3.736 33.3885 3.744C33.0045 3.776 32.6405 3.848 32.2965 3.96C31.9605 4.072 31.6165 4.196 31.2645 4.332C31.2085 4.788 31.1605 5.252 31.1205 5.724C31.0805 6.188 31.0605 6.648 31.0605 7.104C31.0605 7.192 31.0645 7.312 31.0725 7.464C31.0805 7.608 31.0965 7.756 31.1205 7.908C31.1445 8.052 31.1845 8.176 31.2405 8.28C31.2965 8.384 31.3765 8.436 31.4805 8.436C31.6165 8.436 31.7565 8.36 31.9005 8.208C32.0445 8.048 32.1885 7.856 32.3325 7.632C32.4765 7.4 32.6085 7.168 32.7285 6.936C32.8485 6.704 32.9525 6.508 33.0405 6.348C33.1365 6.188 33.2005 6.104 33.2325 6.096V6.132C33.2325 6.252 33.1925 6.42 33.1125 6.636C33.0325 6.852 32.9245 7.084 32.7885 7.332C32.6605 7.572 32.5165 7.804 32.3565 8.028C32.2045 8.252 32.0485 8.436 31.8885 8.58C31.7365 8.724 31.5925 8.796 31.4565 8.796ZM33.6802 8.964C33.6242 8.964 33.5802 8.944 33.5482 8.904C33.5162 8.864 33.5002 8.816 33.5002 8.76C33.5002 8.456 33.5122 8.152 33.5362 7.848C33.5682 7.536 33.5842 7.228 33.5842 6.924C33.5842 6.724 33.5762 6.472 33.5602 6.168C33.5522 5.856 33.5242 5.552 33.4762 5.256C33.4362 4.952 33.3642 4.72 33.2602 4.56C33.2522 4.544 33.2442 4.532 33.2362 4.524C33.2282 4.508 33.2242 4.492 33.2242 4.476C33.2242 4.428 33.2482 4.396 33.2962 4.38C33.3442 4.356 33.3842 4.344 33.4162 4.344C33.5282 4.344 33.6162 4.408 33.6802 4.536C33.7442 4.664 33.7922 4.828 33.8242 5.028C33.8562 5.228 33.8762 5.436 33.8842 5.652C33.9002 5.86 33.9082 6.052 33.9082 6.228C33.9082 6.396 33.9082 6.512 33.9082 6.576C33.9082 6.656 33.9082 6.732 33.9082 6.804C33.9162 6.876 33.9202 6.952 33.9202 7.032C33.9522 6.92 34.0082 6.748 34.0882 6.516C34.1682 6.284 34.2642 6.028 34.3762 5.748C34.4882 5.46 34.6082 5.188 34.7362 4.932C34.8722 4.668 35.0042 4.452 35.1322 4.284C35.2682 4.116 35.3962 4.032 35.5162 4.032C35.6362 4.032 35.7242 4.108 35.7802 4.26C35.8362 4.412 35.8722 4.576 35.8882 4.752C35.9122 4.928 35.9242 5.06 35.9242 5.148C35.9242 5.204 35.9202 5.3 35.9122 5.436C35.9042 5.564 35.8842 5.684 35.8522 5.796C35.8282 5.908 35.7802 5.964 35.7082 5.964C35.6442 5.964 35.6122 5.892 35.6122 5.748C35.6122 5.684 35.6162 5.624 35.6242 5.568C35.6322 5.512 35.6362 5.468 35.6362 5.436C35.6362 5.396 35.6322 5.304 35.6242 5.16C35.6162 5.008 35.5962 4.864 35.5642 4.728C35.5402 4.592 35.5042 4.524 35.4562 4.524C35.4082 4.524 35.3482 4.572 35.2762 4.668C35.2122 4.756 35.1442 4.864 35.0722 4.992C35.0082 5.112 34.9482 5.232 34.8922 5.352C34.8442 5.464 34.8122 5.544 34.7962 5.592C34.6762 5.888 34.5482 6.224 34.4122 6.6C34.2842 6.976 34.1722 7.356 34.0762 7.74C33.9882 8.116 33.9442 8.468 33.9442 8.796C33.8882 8.908 33.8002 8.964 33.6802 8.964ZM36.5002 9.336C36.3642 9.336 36.2642 9.268 36.2002 9.132C36.1362 9.004 36.0962 8.856 36.0802 8.688C36.0642 8.52 36.0562 8.392 36.0562 8.304C36.0562 8 36.0842 7.68 36.1402 7.344C36.1962 7 36.2682 6.68 36.3562 6.384C36.3962 6.248 36.4682 6.052 36.5722 5.796C36.6762 5.532 36.8002 5.264 36.9442 4.992C37.0962 4.72 37.2562 4.492 37.4242 4.308C37.6002 4.116 37.7762 4.02 37.9522 4.02C38.0882 4.02 38.2362 4.08 38.3962 4.2C38.5562 4.32 38.6362 4.452 38.6362 4.596C38.6362 4.652 38.6162 4.7 38.5762 4.74C38.5842 4.732 38.6042 4.728 38.6362 4.728C38.7882 4.728 38.8642 4.808 38.8642 4.968C38.8642 5.152 38.8362 5.372 38.7802 5.628C38.7322 5.884 38.6802 6.156 38.6242 6.444C38.5682 6.724 38.5402 6.996 38.5402 7.26C38.5402 7.356 38.5482 7.472 38.5642 7.608C38.5802 7.736 38.6162 7.852 38.6722 7.956C38.7362 8.06 38.8362 8.112 38.9722 8.112C39.1002 8.112 39.2362 8.044 39.3802 7.908C39.5242 7.772 39.6642 7.604 39.8002 7.404C39.9362 7.204 40.0642 7.004 40.1842 6.804C40.3042 6.604 40.4042 6.436 40.4842 6.3C40.5722 6.164 40.6322 6.096 40.6642 6.096C40.7202 6.096 40.7482 6.132 40.7482 6.204C40.7482 6.3 40.7042 6.44 40.6162 6.624C40.5362 6.8 40.4282 6.996 40.2922 7.212C40.1562 7.42 40.0042 7.624 39.8362 7.824C39.6762 8.016 39.5122 8.176 39.3442 8.304C39.1842 8.424 39.0402 8.484 38.9122 8.484C38.7042 8.484 38.5442 8.4 38.4322 8.232C38.3282 8.056 38.2562 7.848 38.2162 7.608C38.1842 7.368 38.1682 7.144 38.1682 6.936C38.1682 6.864 38.1682 6.796 38.1682 6.732C38.1682 6.668 38.1722 6.612 38.1802 6.564C38.1322 6.676 38.0642 6.844 37.9762 7.068C37.8882 7.284 37.7842 7.524 37.6642 7.788C37.5522 8.044 37.4282 8.292 37.2922 8.532C37.1642 8.764 37.0322 8.956 36.8962 9.108C36.7602 9.26 36.6282 9.336 36.5002 9.336ZM36.5962 8.832C36.7002 8.832 36.8162 8.736 36.9442 8.544C37.0722 8.352 37.2042 8.108 37.3402 7.812C37.4842 7.508 37.6202 7.184 37.7482 6.84C37.8762 6.496 37.9922 6.172 38.0962 5.868C38.2082 5.556 38.3002 5.3 38.3722 5.1C38.4442 4.892 38.4922 4.78 38.5162 4.764L38.4442 4.776C38.3882 4.776 38.3442 4.748 38.3122 4.692C38.2802 4.628 38.2402 4.568 38.1922 4.512C38.1442 4.456 38.0642 4.428 37.9522 4.428C37.8082 4.428 37.6682 4.512 37.5322 4.68C37.3962 4.848 37.2642 5.052 37.1362 5.292C37.0162 5.524 36.9122 5.752 36.8242 5.976C36.7442 6.2 36.6882 6.368 36.6562 6.48C36.4962 7.032 36.4162 7.6 36.4162 8.184C36.4162 8.216 36.4162 8.288 36.4162 8.4C36.4242 8.504 36.4402 8.604 36.4642 8.7C36.4962 8.788 36.5402 8.832 36.5962 8.832ZM41.2031 4.284C41.1471 4.284 41.0951 4.272 41.0471 4.248C40.9991 4.216 40.9751 4.172 40.9751 4.116C40.9751 4.052 41.0031 3.956 41.0591 3.828C41.1151 3.692 41.1871 3.556 41.2751 3.42C41.3631 3.284 41.4551 3.168 41.5511 3.072C41.6551 2.976 41.7471 2.928 41.8271 2.928C41.8911 2.928 41.9231 2.968 41.9231 3.048C41.9231 3.144 41.8711 3.22 41.7671 3.276C41.7031 3.316 41.6471 3.392 41.5991 3.504C41.5591 3.616 41.5231 3.732 41.4911 3.852C41.4671 3.972 41.4431 4.068 41.4191 4.14C41.3951 4.236 41.3231 4.284 41.2031 4.284ZM40.9631 8.88C40.7791 8.88 40.6431 8.804 40.5551 8.652C40.4671 8.492 40.4111 8.312 40.3871 8.112C40.3631 7.904 40.3511 7.736 40.3511 7.608C40.3511 7.528 40.3591 7.38 40.3751 7.164C40.3991 6.948 40.4271 6.708 40.4591 6.444C40.4991 6.172 40.5431 5.908 40.5911 5.652C40.6471 5.396 40.7111 5.184 40.7831 5.016C40.8551 4.848 40.9311 4.764 41.0111 4.764C41.0751 4.764 41.1311 4.784 41.1791 4.824C41.2271 4.864 41.2511 4.916 41.2511 4.98C41.2511 5.076 41.2231 5.228 41.1671 5.436C41.1111 5.644 41.0431 5.88 40.9631 6.144C40.8911 6.408 40.8231 6.676 40.7591 6.948C40.7031 7.212 40.6751 7.452 40.6751 7.668C40.6751 7.724 40.6791 7.82 40.6871 7.956C40.7031 8.092 40.7311 8.22 40.7711 8.34C40.8111 8.452 40.8751 8.508 40.9631 8.508C41.0831 8.508 41.2151 8.42 41.3591 8.244C41.5031 8.068 41.6471 7.852 41.7911 7.596C41.9431 7.332 42.0831 7.072 42.2111 6.816C42.3391 6.552 42.4471 6.332 42.5351 6.156C42.6231 5.98 42.6831 5.892 42.7151 5.892C42.7551 5.892 42.7791 5.908 42.7871 5.94C42.8031 5.964 42.8111 5.992 42.8111 6.024C42.8111 6.128 42.7671 6.296 42.6791 6.528C42.5911 6.752 42.4751 7 42.3311 7.272C42.1871 7.536 42.0311 7.792 41.8631 8.04C41.6951 8.28 41.5311 8.48 41.3711 8.64C41.2111 8.8 41.0751 8.88 40.9631 8.88ZM42.7574 9.048C42.7014 9.048 42.6574 9.028 42.6254 8.988C42.6014 8.94 42.5894 8.888 42.5894 8.832C42.5894 8.384 42.6134 7.936 42.6614 7.488C42.7174 7.032 42.7454 6.58 42.7454 6.132C42.7454 6.084 42.7414 5.992 42.7334 5.856C42.7334 5.712 42.7254 5.56 42.7094 5.4C42.7014 5.232 42.6854 5.084 42.6614 4.956C42.6454 4.82 42.6214 4.736 42.5894 4.704C42.5574 4.68 42.5254 4.652 42.4934 4.62C42.4694 4.588 42.4574 4.548 42.4574 4.5C42.4574 4.452 42.4774 4.416 42.5174 4.392C42.5654 4.36 42.6134 4.344 42.6614 4.344C42.7974 4.344 42.8934 4.408 42.9494 4.536C43.0134 4.656 43.0534 4.804 43.0694 4.98C43.0934 5.156 43.1054 5.324 43.1054 5.484C43.1054 6.236 43.0814 6.992 43.0334 7.752C43.0654 7.664 43.1294 7.508 43.2254 7.284C43.3214 7.06 43.4374 6.808 43.5734 6.528C43.7094 6.248 43.8494 5.98 43.9934 5.724C44.1454 5.46 44.2854 5.244 44.4134 5.076C44.5414 4.9 44.6454 4.812 44.7254 4.812C44.8374 4.812 44.9174 4.884 44.9654 5.028C45.0214 5.164 45.0494 5.276 45.0494 5.364C45.0494 5.732 45.0294 6.1 44.9894 6.468C44.9574 6.836 44.9414 7.208 44.9414 7.584C44.9414 7.632 44.9454 7.724 44.9534 7.86C44.9694 7.988 44.9934 8.112 45.0254 8.232C45.0654 8.344 45.1254 8.4 45.2054 8.4C45.2694 8.4 45.3534 8.328 45.4574 8.184C45.5614 8.04 45.6694 7.872 45.7814 7.68C45.8934 7.48 45.9934 7.292 46.0814 7.116C46.1694 6.94 46.2294 6.816 46.2614 6.744C46.2694 6.728 46.2774 6.712 46.2854 6.696C46.2934 6.672 46.3054 6.66 46.3214 6.66C46.3614 6.66 46.3854 6.692 46.3934 6.756C46.4014 6.812 46.4054 6.848 46.4054 6.864C46.4054 6.944 46.3614 7.084 46.2734 7.284C46.1854 7.484 46.0734 7.696 45.9374 7.92C45.8094 8.144 45.6734 8.336 45.5294 8.496C45.3934 8.656 45.2694 8.736 45.1574 8.736C44.9974 8.736 44.8774 8.672 44.7974 8.544C44.7254 8.416 44.6774 8.272 44.6534 8.112C44.6294 7.944 44.6174 7.804 44.6174 7.692C44.6174 7.428 44.6294 7.164 44.6534 6.9C44.6854 6.636 44.7014 6.372 44.7014 6.108C44.7014 6.084 44.6974 6.024 44.6894 5.928C44.6894 5.832 44.6854 5.74 44.6774 5.652C44.6694 5.564 44.6494 5.52 44.6174 5.52C44.5374 5.52 44.4334 5.62 44.3054 5.82C44.1854 6.02 44.0534 6.272 43.9094 6.576C43.7734 6.88 43.6374 7.196 43.5014 7.524C43.3654 7.844 43.2454 8.132 43.1414 8.388C43.0454 8.644 42.9774 8.816 42.9374 8.904C42.9214 8.936 42.8974 8.968 42.8654 9C42.8414 9.032 42.8054 9.048 42.7574 9.048Z" fill="white"/>
</svg>
