<svg width="240" height="950" viewBox="0 0 240 950" fill="none" xmlns="http://www.w3.org/2000/svg">
<path d="M16.0262 1.99995L224.023 2.00075C229.546 2.00077 234.023 6.47789 234.023 12.0007L234.023 926.442C234.023 935.014 223.944 939.613 217.47 933.996L126.126 854.748C122.335 851.459 116.693 851.489 112.938 854.819L22.6614 934.875C16.2098 940.596 6.0266 936.016 6.02659 927.393L6.02616 12C6.02616 6.47709 10.5033 1.99992 16.0262 1.99995Z" fill="white" fill-opacity="0.75" stroke="black" stroke-width="3"/>
<path d="M120.376 702.728L65.1897 659.554L65.2663 646.019L143.391 660.05L143.317 673.209L87.889 663.227L143.129 706.348L143.053 719.883L64.9276 705.852L65.0018 692.746L120.376 702.728ZM116.046 594.657L115.927 606.258L109.381 605.039L109.48 596.983C109.454 595.228 109.195 593.58 108.702 592.037C108.21 590.459 107.412 589.129 106.308 588.049C105.204 586.968 103.704 586.298 101.808 586.036C100.126 585.812 98.7462 586.019 97.6683 586.657C96.5905 587.296 95.7794 588.24 95.2352 589.49C94.6913 590.705 94.3971 592.064 94.3528 593.567C94.3072 595.286 94.5665 596.934 95.1305 598.513C95.6947 600.056 96.5464 601.404 97.6857 602.556C98.8253 603.673 100.253 604.433 101.97 604.836L101.952 617.512C97.9074 617.167 94.6031 615.77 92.0388 613.32C89.4387 610.87 87.5219 607.888 86.2886 604.371C85.0554 600.819 84.4852 597.182 84.5778 593.458C84.628 590.916 84.9824 588.412 85.6409 585.945C86.2638 583.442 87.2433 581.209 88.5793 579.247C89.8796 577.249 91.5714 575.701 93.6545 574.603C95.7377 573.469 98.2649 572.982 101.236 573.142C103.921 573.3 106.208 574.065 108.098 575.437C109.988 576.808 111.518 578.554 112.688 580.673C113.858 582.756 114.722 585.035 115.281 587.509C115.804 589.947 116.059 592.329 116.046 594.657ZM112.171 605.538L112.282 595.495C112.331 593.132 112.63 590.824 113.18 588.571C113.694 586.282 114.512 584.246 115.632 582.462C116.752 580.642 118.246 579.218 120.114 578.19C121.982 577.163 124.294 576.71 127.051 576.833C130.308 577.031 133.078 577.924 135.361 579.512C137.644 581.065 139.494 583.08 140.913 585.559C142.331 588.038 143.354 590.747 143.982 593.687C144.61 596.591 144.88 599.439 144.793 602.232C144.7 605.991 143.964 609.478 142.585 612.693C141.171 615.872 139.115 618.439 136.418 620.393C133.722 622.311 130.369 623.223 126.359 623.129L126.483 610.668C128.345 610.715 129.905 610.33 131.163 609.513C132.385 608.661 133.322 607.52 133.975 606.092C134.592 604.627 134.923 603 134.969 601.209C134.98 599.383 134.685 597.609 134.086 595.887C133.487 594.165 132.547 592.709 131.264 591.52C129.982 590.296 128.375 589.535 126.443 589.237C124.547 588.976 123.042 589.164 121.928 589.802C120.815 590.405 120.022 591.367 119.549 592.689C119.04 594.011 118.763 595.514 118.717 597.196L118.61 606.703L112.171 605.538ZM137.148 529.538L86.1512 505.294L86.2302 491.329L153.068 525.761C155.067 526.739 156.959 527.86 158.742 529.123C160.525 530.351 162.093 531.756 163.445 533.339C164.797 534.922 165.843 536.701 166.584 538.675C167.36 540.613 167.742 542.799 167.728 545.234C167.686 546.344 167.555 547.435 167.334 548.508C167.148 549.617 166.927 550.708 166.671 551.781L156.739 550.811C156.777 550.418 156.815 550.024 156.853 549.63C156.927 549.237 156.965 548.843 156.968 548.449C157.051 546.409 156.792 544.617 156.192 543.074C155.628 541.531 154.741 540.183 153.53 539.03C152.319 537.842 150.839 536.795 149.089 535.89L137.148 529.538ZM86.0162 529.141L130.199 523.483L143.411 523.665L145.617 532.486L85.9414 542.354L86.0162 529.141ZM86.6506 417.07L144.708 427.442L144.636 440.118L86.5791 429.692L86.6506 417.07ZM112.32 427.367L122.681 428.392C123.494 430.187 124.164 432.071 124.69 434.043C125.18 436.015 125.545 438.023 125.784 440.065C126.023 442.072 126.119 444.077 126.072 446.082C126.011 450.594 125.111 454.51 123.374 457.83C121.636 461.15 119.133 463.625 115.866 465.253C112.598 466.846 108.62 467.379 103.933 466.851L86.3317 463.905L86.4032 451.283L104.058 454.229C106.419 454.565 108.461 454.505 110.182 454.049C111.868 453.557 113.198 452.634 114.172 451.279C115.111 449.888 115.623 447.939 115.709 445.433C115.757 443.356 115.643 441.315 115.368 439.308C115.057 437.265 114.621 435.257 114.059 433.285C113.497 431.312 112.918 429.339 112.32 427.367ZM146.13 366.079C146.036 370.054 145.246 373.576 143.76 376.647C142.239 379.682 140.202 382.195 137.648 384.186C135.059 386.177 132.096 387.61 128.761 388.486C125.39 389.362 121.808 389.647 118.014 389.339L115.813 389.111C111.913 388.695 108.158 387.725 104.55 386.201C100.906 384.676 97.6773 382.653 94.8627 380.13C92.0126 377.572 89.7737 374.569 88.1461 371.122C86.5184 367.676 85.7702 363.84 85.9016 359.615C85.9961 355.57 86.8569 352.155 88.484 349.371C90.1111 346.587 92.2721 344.379 94.9669 342.747C97.626 341.115 100.64 340.04 104.009 339.522C107.378 338.968 110.87 338.899 114.484 339.313L120.012 340.096L119.765 383.709L110.481 382.152L110.709 351.377L109.583 351.155C107.329 350.82 105.197 350.934 103.189 351.495C101.181 352.021 99.528 353.014 98.2307 354.475C96.9333 355.936 96.2419 357.901 96.1563 360.372C96.0694 363.057 96.6114 365.369 97.782 367.31C98.9529 369.214 100.537 370.799 102.535 372.063C104.534 373.328 106.712 374.325 109.071 375.054C111.395 375.748 113.666 376.244 115.884 376.543L118.032 376.77C120.143 376.997 122.238 376.955 124.317 376.645C126.395 376.334 128.296 375.718 130.02 374.797C131.709 373.875 133.094 372.594 134.178 370.953C135.226 369.312 135.792 367.274 135.878 364.84C135.967 361.797 135.356 359.036 134.045 356.558C132.698 354.044 130.957 351.76 128.82 349.707L135.461 343.514C137.923 345.175 139.952 347.227 141.55 349.671C143.147 352.08 144.332 354.7 145.104 357.533C145.84 360.331 146.182 363.179 146.13 366.079ZM111.77 268.366L121.965 270.196L121.799 299.522L111.604 297.638L111.77 268.366ZM87.3721 289.605L145.429 300.031L145.358 312.653L87.3007 302.227L87.3721 289.605ZM87.5682 254.962L145.625 265.388L145.554 278.064L87.4965 267.638L87.5682 254.962ZM117.75 227.224L116.516 227.056C112.508 226.604 108.7 225.597 105.092 224.037C101.484 222.477 98.2913 220.418 95.5128 217.86C92.6986 215.266 90.5136 212.228 88.9578 208.745C87.4022 205.227 86.6902 201.32 86.822 197.024C86.9171 192.871 87.7966 189.313 89.4606 186.35C91.1247 183.352 93.3406 180.93 96.1083 179.083C98.8403 177.201 101.963 175.894 105.476 175.162C108.954 174.429 112.589 174.253 116.383 174.633L117.618 174.747C121.625 175.235 125.415 176.277 128.987 177.873C132.559 179.433 135.734 181.51 138.512 184.104C141.255 186.662 143.404 189.699 144.96 193.217C146.48 196.699 147.174 200.571 147.042 204.831C146.948 208.948 146.086 212.506 144.458 215.505C142.794 218.468 140.596 220.89 137.864 222.772C135.132 224.619 132.045 225.909 128.603 226.641C125.126 227.373 121.508 227.568 117.75 227.224ZM116.587 214.488L117.822 214.602C119.79 214.792 121.867 214.822 124.052 214.691C126.237 214.56 128.28 214.142 130.182 213.437C132.084 212.731 133.648 211.63 134.874 210.133C136.099 208.636 136.755 206.635 136.841 204.129C136.928 201.479 136.404 199.167 135.269 197.191C134.134 195.215 132.604 193.559 130.678 192.224C128.752 190.888 126.645 189.819 124.358 189.019C122.035 188.218 119.764 187.686 117.546 187.423L116.311 187.308C114.379 187.082 112.32 187.035 110.135 187.166C107.914 187.296 105.835 187.714 103.897 188.42C101.924 189.124 100.324 190.225 99.0983 191.722C97.8365 193.219 97.1628 195.221 97.077 197.727C96.9901 200.412 97.532 202.742 98.7024 204.718C99.8371 206.694 101.385 208.35 103.347 209.686C105.309 211.022 107.452 212.091 109.775 212.892C112.098 213.657 114.368 214.189 116.587 214.488Z" fill="#535353"/>
</svg>
