<svg width="81" height="70" viewBox="0 0 81 70" fill="#302F2F" xmlns="http://www.w3.org/2000/svg">
<path d="M65.2646 0.382729C61.102 1.37774 58.9719 1.86977 54.5058 2.86478C49.0479 4.08395 34.4463 7.35326 29.1401 8.54509C27.2051 8.98245 25.4165 9.40342 25.1672 9.48542C24.0398 9.85172 23.3352 10.5788 23.0046 11.7215C22.9125 12.0331 22.907 13.1866 22.8908 33.5406L22.8799 55.0372L22.4734 54.8294C21.991 54.5834 20.907 54.2171 20.3054 54.0914C17.7038 53.5556 14.7119 53.8836 11.8502 55.0208C9.86101 55.8135 8.03446 56.9998 6.64693 58.4049C5.36238 59.7061 4.53854 61.0783 4.14287 62.5817C4.01821 63.0464 4.00195 63.2214 4.00195 63.9868C4.00195 64.9927 4.07783 65.3864 4.4464 66.1791C5.35154 68.1254 7.28649 69.35 10.2242 69.8475C11.1076 69.9951 13.0859 69.9787 14.1266 69.8202C17.9965 69.2188 21.6062 67.2944 23.8122 64.6538C24.7444 63.5439 25.4328 62.1936 25.6984 60.9799C25.7417 60.7831 25.758 55.8026 25.7526 43.3759C25.7526 31.485 25.7688 25.914 25.8068 25.6352C25.9965 24.263 26.6794 23.3554 28.0019 22.7103C28.3325 22.5463 28.7824 22.3549 29.01 22.2839C29.5357 22.1089 29.4273 22.1308 41.3623 19.4574C46.8636 18.2273 53.4272 16.7566 55.9584 16.1881L60.5492 15.1548V29.905V44.6552L60.0722 44.4201C57.514 43.1353 53.7958 43.0861 50.2782 44.2889C46.1427 45.7049 42.8853 48.5696 41.8772 51.6804C41.6224 52.4676 41.5574 52.9433 41.5953 53.8289C41.6224 54.6162 41.6929 54.9388 41.9747 55.6385C42.2999 56.4313 43.1942 57.4974 43.9855 58.0222C45.1617 58.804 46.6414 59.307 48.2891 59.4819C49.0804 59.5639 51.0045 59.5147 51.7687 59.3944C57.1074 58.5525 61.7795 55.2066 63.0749 51.3031C63.4435 50.1824 63.4218 51.8717 63.4218 28.5327C63.4218 14.8869 63.4435 7.23299 63.476 6.92683C63.6494 5.41792 64.1698 4.3081 65.0532 3.56458C65.438 3.24748 66.121 2.91399 66.5817 2.82652L66.9448 2.75545V1.37774C66.9448 0.617813 66.9286 -0.00543213 66.9069 3.05176e-05C66.8798 3.05176e-05 66.1426 0.17498 65.2646 0.382729Z" fill="302F2F"/>
<line x1="0.949578" y1="15.3518" x2="79.6337" y2="47.5046" stroke="#302F2F" stroke-width="5"/>
</svg>
