<svg width="63" height="70" viewBox="0 0 63 70" fill="none" xmlns="http://www.w3.org/2000/svg">
<path d="M61.2626 0.382729C57.1001 1.37774 54.97 1.86977 50.5039 2.86478C45.0459 4.08395 30.4443 7.35326 25.1381 8.54509C23.2032 8.98245 21.4146 9.40342 21.1652 9.48542C20.0379 9.85172 19.3333 10.5788 19.0026 11.7215C18.9105 12.0331 18.9051 13.1866 18.8888 33.5406L18.878 55.0372L18.4715 54.8294C17.9891 54.5834 16.9051 54.2171 16.3035 54.0914C13.7018 53.5556 10.71 53.8836 7.84821 55.0208C5.85906 55.8135 4.03251 56.9998 2.64498 58.4049C1.36043 59.7061 0.536583 61.0783 0.140921 62.5817C0.0162601 63.0464 0 63.2214 0 63.9868C0 64.9927 0.0758805 65.3864 0.444443 66.1791C1.34959 68.1254 3.28454 69.35 6.2222 69.8475C7.10566 69.9951 9.08398 69.9787 10.1246 69.8202C13.9945 69.2188 17.6043 67.2944 19.8102 64.6538C20.7425 63.5439 21.4308 62.1936 21.6964 60.9799C21.7398 60.7831 21.756 55.8026 21.7506 43.3759C21.7506 31.485 21.7669 25.914 21.8048 25.6352C21.9945 24.263 22.6774 23.3554 23.9999 22.7103C24.3305 22.5463 24.7804 22.3549 25.008 22.2839C25.5338 22.1089 25.4254 22.1308 37.3603 19.4574C42.8616 18.2273 49.4253 16.7566 51.9564 16.1881L56.5472 15.1548V29.905V44.6552L56.0703 44.4201C53.512 43.1353 49.7939 43.0861 46.2763 44.2889C42.1408 45.7049 38.8833 48.5696 37.8752 51.6804C37.6205 52.4676 37.5554 52.9433 37.5934 53.8289C37.6205 54.6162 37.6909 54.9388 37.9728 55.6385C38.298 56.4313 39.1923 57.4974 39.9836 58.0222C41.1597 58.804 42.6394 59.307 44.2871 59.4819C45.0784 59.5639 47.0025 59.5147 47.7668 59.3944C53.1055 58.5525 57.7776 55.2066 59.073 51.3031C59.4415 50.1824 59.4198 51.8717 59.4198 28.5327C59.4198 14.8869 59.4415 7.23299 59.474 6.92683C59.6475 5.41792 60.1678 4.3081 61.0513 3.56458C61.4361 3.24748 62.119 2.91399 62.5797 2.82652L62.9429 2.75545V1.37774C62.9429 0.617813 62.9266 -0.00543213 62.9049 3.05176e-05C62.8778 3.05176e-05 62.1407 0.17498 61.2626 0.382729Z" fill="black"/>
</svg>
