<?xml version="1.0" standalone="no"?>
<!DOCTYPE svg PUBLIC "-//W3C//DTD SVG 20010904//EN"
 "http://www.w3.org/TR/2001/REC-SVG-20010904/DTD/svg10.dtd">
<svg version="1.0" xmlns="http://www.w3.org/2000/svg"
 width="717.000000pt" height="1280.000000pt" viewBox="0 0 717.000000 1280.000000"
 preserveAspectRatio="xMidYMid meet">
<metadata>
Created by potrace 1.15, written by Peter Selinger 2001-2017
</metadata>
<g transform="translate(0.000000,1280.000000) scale(0.100000,-0.100000)"
fill="#000000" stroke="none">
<path d="M2450 12789 c-519 -32 -723 -120 -1105 -475 -144 -133 -153 -140
-225 -163 -41 -13 -99 -34 -128 -47 l-53 -23 -52 20 c-121 48 -172 83 -314
221 -149 145 -231 206 -316 234 -195 65 -298 -51 -238 -269 32 -117 191 -424
298 -575 223 -315 538 -444 1123 -459 200 -6 206 -6 262 -34 31 -16 74 -31 96
-35 22 -3 45 -10 52 -14 9 -6 59 -258 60 -307 0 -6 -46 -40 -102 -74 -410
-254 -855 -658 -1205 -1096 -51 -64 -93 -119 -93 -123 0 -3 14 -17 31 -29 l31
-23 217 80 c445 165 694 231 962 255 l47 4 6 -64 c24 -238 164 -421 449 -589
95 -56 196 -125 196 -134 0 -3 -23 -21 -52 -41 -95 -67 -241 -195 -352 -310
-266 -275 -434 -566 -479 -830 l-6 -36 103 51 c201 100 347 135 582 143 l170
6 -39 -43 c-29 -32 -37 -48 -33 -68 4 -19 -5 -38 -35 -76 -117 -148 -246 -518
-332 -951 -31 -153 -66 -378 -66 -419 0 -16 -20 -68 -44 -115 -185 -362 -215
-820 -92 -1386 14 -63 27 -160 30 -225 7 -174 37 -282 86 -312 11 -7 20 -16
20 -21 0 -17 -75 -208 -127 -322 -118 -255 -322 -610 -464 -805 -223 -305
-328 -545 -335 -763 -3 -95 -7 -118 -38 -197 -122 -307 -210 -733 -247 -1188
-13 -163 -13 -165 33 -268 l19 -44 117 108 c455 417 937 718 1473 920 230 87
235 88 267 50 24 -29 35 -188 36 -503 1 -225 5 -326 13 -341 11 -18 7 -25 -33
-58 -47 -39 -66 -72 -84 -142 -5 -22 -26 -59 -45 -82 -45 -52 -176 -140 -288
-192 -80 -38 -90 -40 -179 -40 -177 0 -320 -53 -385 -144 -98 -136 -138 -260
-96 -301 74 -75 609 -149 837 -116 76 11 85 15 220 104 l141 93 165 -38 c91
-21 188 -38 215 -38 72 0 487 48 497 58 19 19 60 263 65 388 5 117 3 139 -17
208 l-23 78 31 131 c38 157 60 340 63 500 l1 117 60 40 c68 45 68 45 68 27 0
-23 57 -104 93 -131 21 -16 55 -30 84 -34 l48 -7 7 -120 c8 -153 24 -250 55
-349 27 -87 27 -121 -2 -226 -14 -52 -16 -86 -11 -165 5 -92 33 -267 57 -357
11 -43 -8 -39 309 -72 l224 -24 168 39 c93 21 175 39 184 39 8 0 75 -40 149
-90 124 -83 140 -91 207 -101 193 -30 671 24 813 92 45 21 60 60 45 117 -13
55 -56 136 -111 209 -67 90 -211 142 -391 143 -81 0 -94 3 -173 40 -107 49
-210 117 -269 177 -36 36 -51 61 -66 114 -20 67 -59 122 -104 146 -17 9 -17
14 -7 43 7 21 11 122 11 284 1 284 17 453 51 534 12 29 27 51 33 49 6 -3 58
-17 116 -31 513 -131 1077 -357 1573 -630 75 -42 141 -76 145 -76 5 0 21 31
36 69 l27 70 -21 168 c-94 746 -265 1355 -521 1860 -59 116 -79 165 -84 210
-33 277 -136 488 -363 741 -37 41 -144 146 -239 234 -96 88 -179 170 -185 181
-10 20 -9 20 18 -2 109 -84 210 -131 280 -131 73 0 123 110 150 330 15 129 21
696 8 810 -6 51 -3 61 25 107 45 72 156 310 237 503 38 91 79 180 91 199 13
19 23 42 23 52 0 27 11 49 25 49 23 0 62 39 68 67 3 15 -1 51 -9 80 -8 30 -14
56 -14 58 0 2 18 9 40 15 93 25 131 101 91 182 l-21 43 25 49 c62 123 7 267
-133 351 -39 23 -50 35 -47 50 10 44 155 818 155 825 0 4 -24 5 -53 2 -32 -2
-74 2 -107 12 -30 9 -89 19 -130 22 -190 15 -608 -85 -835 -199 -167 -83 -317
-211 -359 -305 -10 -23 -22 -42 -25 -42 -3 0 -42 11 -86 24 -78 23 -80 24
-105 72 -14 27 -54 79 -89 116 -72 77 -171 133 -252 144 -30 4 -48 11 -46 18
6 19 80 55 148 72 86 22 315 14 443 -15 49 -12 91 -19 93 -17 7 7 -118 246
-175 332 -77 117 -147 201 -250 301 l-85 82 40 63 c118 187 209 445 243 693
l12 81 66 24 c107 38 307 142 437 227 205 135 372 269 610 488 71 66 153 137
180 157 90 66 185 174 293 335 l42 62 -42 12 c-37 10 -62 8 -183 -16 -373 -73
-654 -121 -870 -150 -178 -24 -473 -4 -684 45 -92 22 -93 22 -86 49 46 188
-29 336 -270 531 -423 342 -560 446 -822 624 -398 269 -723 434 -945 480 -83
17 -205 19 -428 5z"/>
</g>
</svg>
