<?xml version="1.0" standalone="no"?>
<!DOCTYPE svg PUBLIC "-//W3C//DTD SVG 20010904//EN"
 "http://www.w3.org/TR/2001/REC-SVG-20010904/DTD/svg10.dtd">
<svg version="1.0" xmlns="http://www.w3.org/2000/svg"
 width="920.000000pt" height="1280.000000pt" viewBox="0 0 920.000000 1280.000000"
 preserveAspectRatio="xMidYMid meet">
<metadata>
Created by potrace 1.15, written by Peter Selinger 2001-2017
</metadata>
<g transform="translate(0.000000,1280.000000) scale(0.100000,-0.100000)"
fill="#000000" stroke="none">
<path d="M4250 12780 c-147 -37 -296 -113 -490 -254 -385 -277 -714 -687 -830
-1035 -41 -121 -49 -193 -39 -340 20 -285 80 -398 372 -698 129 -133 147 -155
147 -185 0 -50 27 -167 49 -211 l19 -38 -46 -20 c-188 -81 -524 -127 -822
-114 l-145 7 -24 -26 -24 -25 18 -48 c38 -101 137 -282 203 -368 155 -205 345
-309 605 -333 l77 -7 -36 -53 c-19 -30 -83 -102 -141 -162 l-104 -109 38 -8
c70 -15 333 -9 396 9 l57 16 0 -31 c-1 -45 -32 -109 -101 -204 -32 -45 -59
-84 -59 -87 0 -20 241 5 326 34 31 11 59 20 61 20 2 0 -23 -36 -57 -79 -41
-55 -56 -82 -48 -87 6 -4 82 -9 167 -12 120 -3 178 0 251 13 52 10 107 20 123
22 22 4 27 2 27 -15 0 -17 -14 -23 -92 -42 -577 -140 -928 -439 -989 -843 -12
-75 -18 -89 -74 -172 -34 -49 -117 -182 -185 -294 -206 -345 -386 -603 -591
-846 -50 -60 -131 -162 -179 -225 -386 -510 -747 -851 -1281 -1210 -251 -169
-380 -284 -503 -447 -156 -207 -245 -423 -297 -719 -20 -111 -23 -163 -23
-379 0 -303 30 -572 100 -892 l16 -73 78 103 c198 259 405 450 585 540 111 56
162 70 271 75 108 4 176 -9 259 -50 66 -33 178 -123 233 -188 l51 -61 -140
-412 c-77 -227 -143 -419 -145 -428 -4 -11 45 -57 173 -160 98 -79 225 -191
283 -249 101 -101 195 -218 195 -243 0 -20 -182 -140 -425 -280 l-235 -134
-84 -7 c-97 -8 -144 -28 -201 -88 -107 -109 -161 -339 -106 -447 21 -39 54
-54 184 -83 81 -18 131 -22 302 -22 184 -1 214 1 290 22 47 13 126 45 175 71
50 27 162 74 250 106 186 67 244 92 303 129 24 15 48 24 54 20 6 -4 44 -31 84
-59 263 -189 640 -312 1059 -346 318 -25 587 12 823 113 l77 33 64 -23 c36
-12 135 -34 220 -48 87 -14 198 -39 251 -57 89 -30 104 -32 230 -32 181 1 301
28 501 111 143 60 154 73 154 177 0 72 -4 90 -33 148 -38 79 -110 158 -172
190 -33 17 -65 23 -117 25 -64 2 -79 6 -145 45 -99 58 -183 115 -230 157 l-38
34 82 91 c233 255 386 388 531 458 43 21 83 39 87 41 17 6 -85 532 -140 724
-11 38 -20 72 -20 75 0 4 19 3 43 -2 68 -13 207 -10 303 6 385 68 792 351
1042 725 88 132 175 324 203 449 15 67 27 141 22 141 -3 0 -23 -15 -46 -33
-69 -56 -160 -106 -238 -134 -99 -34 -246 -42 -339 -19 -230 58 -416 247 -498
506 -37 119 -41 110 42 110 40 0 94 6 121 14 46 14 49 14 80 -9 103 -79 221
-71 334 24 46 38 47 39 76 23 17 -9 54 -16 85 -16 71 0 125 28 206 105 56 55
64 59 107 59 25 0 71 9 101 20 114 43 187 121 208 222 l12 60 91 -5 c106 -5
138 6 174 58 27 41 51 122 51 175 0 55 -26 131 -58 169 -24 28 -37 35 -86 42
-32 4 -59 9 -61 11 -4 4 103 649 155 928 235 1278 521 2384 861 3332 43 122
81 223 84 226 2 2 49 -8 104 -23 115 -31 135 -29 190 20 97 88 120 287 43 365
-20 19 -49 31 -107 43 -44 10 -85 21 -91 25 -6 4 -17 45 -23 92 -33 221 -124
379 -240 410 -31 8 -44 18 -57 45 -33 70 -116 126 -227 154 -37 9 -61 24 -100
65 -65 66 -119 86 -232 86 -101 0 -134 -11 -206 -65 -55 -42 -56 -42 -110 -34
-101 17 -220 -7 -286 -57 l-34 -26 -49 21 c-69 30 -165 29 -211 -2 -28 -18
-92 -118 -121 -189 -2 -4 -34 2 -73 13 -93 26 -115 24 -162 -10 -74 -54 -120
-194 -99 -305 10 -55 57 -102 116 -117 28 -7 50 -16 50 -20 0 -4 -32 -85 -71
-181 -105 -257 -210 -533 -272 -713 l-55 -160 -93 -91 c-161 -157 -362 -331
-549 -476 -113 -87 -240 -178 -250 -178 -4 0 -13 20 -19 44 -8 34 -7 140 4
428 9 211 17 388 20 395 2 7 28 24 57 39 29 15 83 57 120 94 54 54 69 77 83
123 10 35 14 69 9 91 -6 32 -2 39 40 81 25 25 61 78 80 118 37 75 84 222 74
232 -3 3 -31 -11 -64 -30 -63 -38 -112 -55 -160 -55 -46 0 -48 10 -6 46 42 35
94 126 117 199 16 55 40 223 33 231 -3 3 -68 -9 -144 -27 -238 -55 -320 -47
-456 45 -103 70 -99 62 -49 107 24 21 98 76 165 121 323 218 434 325 553 533
50 86 98 194 90 201 -12 12 -263 77 -422 109 -263 53 -424 68 -670 62 -215 -4
-324 -18 -457 -58 l-67 -20 -113 65 c-192 111 -380 176 -570 198 l-98 11 0 42
c0 56 40 211 80 311 45 113 115 228 184 302 72 77 121 112 205 146 167 68 311
226 311 342 0 103 -103 138 -280 94z m1712 -5917 c-24 -109 -79 -371 -122
-583 -49 -242 -80 -376 -84 -360 -3 14 -26 183 -51 375 -25 193 -54 413 -65
490 -16 110 -17 142 -7 148 10 7 351 124 368 126 3 1 -14 -88 -39 -196z"/>
</g>
</svg>
